<svg width="193" height="193" viewBox="0 0 193 193" fill="none" xmlns="http://www.w3.org/2000/svg">
<path d="M192.66 105.476C192.66 105.665 192.66 105.854 192.66 106.043C188.505 152.128 151.864 188.203 107.101 192.736C106.723 192.736 106.534 192.736 106.156 192.736L192.66 105.476Z" fill="#ACE730"/>
<path d="M138.822 10.0854C136.367 8.95211 133.911 7.8189 131.456 6.87453C126.545 4.98578 121.446 3.47474 116.157 2.34149C109.736 1.01937 103.314 0.263916 96.5144 0.263916C93.3036 0.263916 90.0927 0.452756 86.8819 0.641631C64.5948 2.90813 44.7631 12.5407 29.4643 27.273C28.5199 28.2173 27.3867 29.3506 26.4423 30.295C11.899 45.5938 2.45538 65.8034 0.37777 87.9017C0.188897 90.7348 0 93.568 0 96.5899C0 103.767 0.755517 110.755 2.26651 117.555C3.39975 122.655 4.91073 127.565 6.79946 132.476C7.9327 135.12 9.06598 137.765 10.1992 140.22C12.4657 144.564 14.9211 148.719 17.7542 152.686L33.6195 136.631L135.611 33.5058L151.477 17.4515C147.699 14.8072 143.355 12.3519 138.822 10.0854ZM24.3647 114.911C24.1759 114.344 23.987 113.589 23.987 113.022C22.8537 107.734 22.2871 102.256 22.2871 96.7788C22.2871 77.7024 29.4643 59.7594 42.4966 45.9715L45.1408 43.3273C59.1175 29.9172 77.2493 22.5511 96.7033 22.5511C101.803 22.5511 106.902 23.1177 111.813 24.0621C112.569 24.2509 113.324 24.4398 114.08 24.6287L24.3647 114.911Z" fill="#ACE730"/>
<path d="M63.2855 187.461C60.8301 186.516 58.5636 185.572 56.2972 184.628C51.5753 182.361 47.0423 179.906 42.6982 176.884L176.043 42.2163C178.876 46.3715 181.52 50.7157 183.598 55.4375C184.731 57.8929 185.864 60.3483 186.809 62.8036L63.2855 187.461Z" fill="#ACE730"/>
</svg>
