<svg id="Слой_1" data-name="Слой 1" xmlns="http://www.w3.org/2000/svg" viewBox="0 0 1380.67 503.32">
	<defs>
		<style>
			.cls-1 {
				fill: #050706;
			}
			.cls-2 {
				fill: #4272b7;
			}
			.cls-3 {
				fill: #000300;
			}
		</style>
	</defs>
	<path
	class="cls-1"
	d="M0,196.42q0-26.23,22.2-41t71.64-19.85q-.68-11.08-6.73-17.65T67.6,111.33a60.7,60.7,0,0,0-21.52,4,150.57,150.57,0,0,0-22.87,11.09L5.72,93.84A175.23,175.23,0,0,1,39.52,78,114.71,114.71,0,0,1,77,72q32.3,0,49.28,18.33t17,57v95.52H102.92l-3.7-17.15h-1A105,105,0,0,1,75.51,241a58.2,58.2,0,0,1-26.07,5.88A52,52,0,0,1,28.93,243a44.63,44.63,0,0,1-15.48-10.77,49.85,49.85,0,0,1-9.92-16A54.42,54.42,0,0,1,0,196.42Zm47.09-3.7q0,8.09,5.21,11.94t14,3.87q8.74,0,14.8-3.7A70.61,70.61,0,0,0,93.84,194.4V165.14q-26.58,3.71-36.66,10.77T47.09,192.72Z"/><path
	class="cls-1"
	d="M185.66,76H226l3.36,29.26h1.35q9.08-17.14,21.86-25.22T278.15,72a65.84,65.84,0,0,1,11.61.84A35.64,35.64,0,0,1,298,75.34l-8.07,42.72a80.14,80.14,0,0,0-8.75-2,57.81,57.81,0,0,0-9.42-.67q-9.42,0-19.67,6.72T235.1,146v96.87H185.66Z"/><path class="cls-1" d="M319.52,76h40.36l3.37,29.26h1.34q9.09-17.14,21.86-25.22T412,72a65.71,65.71,0,0,1,11.6.84,35.49,35.49,0,0,1,8.24,2.52l-8.07,42.72a80.14,80.14,0,0,0-8.75-2,57.76,57.76,0,0,0-9.41-.67q-9.44,0-19.68,6.72T369,146v96.87H319.52Z"/><path class="cls-1" d="M453.38,76h49.45V242.84H453.38Z"/><path
	class="cls-1"
	d="M546.21,76h40.36l3.36,21.19h1.35a134.92,134.92,0,0,1,23.54-17.66Q627.6,72,644.76,72,672,72,684.28,89.8t12.27,49.44v103.6H647.11v-97.2q0-18.16-4.87-24.89T626.59,114a29.76,29.76,0,0,0-16.14,4.21,94.32,94.32,0,0,0-14.8,11.93V242.84H546.21Z"/><path
	class="cls-1"
	d="M728.17,271.43q0-20.19,23.88-33.64v-1.34a37.18,37.18,0,0,1-11.1-11.1q-4.38-6.72-4.38-17.16A31.14,31.14,0,0,1,742,190.88a51.2,51.2,0,0,1,13.45-14v-1.35q-8.74-6.06-15.64-17.32t-6.89-26.07q0-15.14,5.71-26.4A55.94,55.94,0,0,1,753.9,86.94a65.19,65.19,0,0,1,22-11.26A90.18,90.18,0,0,1,801.82,72q14.8,0,25.9,4H888.6v36H862a33.66,33.66,0,0,1,3.87,9.42,48.49,48.49,0,0,1,1.51,12.45q0,14.46-5,25a47.79,47.79,0,0,1-14,17.49,60.48,60.48,0,0,1-20.86,10.26A94.67,94.67,0,0,1,801.82,190a65.56,65.56,0,0,1-20.17-3.36,16.81,16.81,0,0,0-4.71,5.38,15.83,15.83,0,0,0-1.35,7.06,10,10,0,0,0,5.55,9.42q5.55,3,19.68,3h26.9q30.94,0,47.26,9.92t16.31,32.46A45.82,45.82,0,0,1,884.73,278a58.64,58.64,0,0,1-18.66,18.83q-12.12,7.9-29.26,12.45a151.76,151.76,0,0,1-38.68,4.54,140.06,140.06,0,0,1-27.42-2.52,82.52,82.52,0,0,1-22.2-7.57,39.74,39.74,0,0,1-15-13.12Q728.17,282.53,728.17,271.43Zm40.69-7.74q0,9.42,10.1,14.3t26.9,4.88q16.82,0,27.58-5.89t10.76-14.64q0-7.72-6.55-10.42t-19-2.69H801.49c-5.83,0-10.55-.17-14.13-.5a64.5,64.5,0,0,1-9.42-1.52Q768.87,255.28,768.86,263.69Zm33-103.59a21.59,21.59,0,0,0,16.32-6.9q6.55-6.88,6.55-21,0-13.11-6.55-20a21.63,21.63,0,0,0-16.32-6.9A21.87,21.87,0,0,0,785.51,112Q779,118.73,779,132.18q0,14.13,6.55,21A21.58,21.58,0,0,0,801.82,160.1Z"/><path
	class="cls-1"
	d="M924.92,114.69H902.05V78l25.57-2,5.71-44.4h41V76h40v38.68h-40v66.93q0,14.13,5.88,20.35c3.92,4.16,9.14,6.22,15.64,6.22a35.34,35.34,0,0,0,8.24-1,55.16,55.16,0,0,0,7.57-2.36l7.73,36q-6.72,2-15.81,4a98.11,98.11,0,0,1-21.18,2q-15.48,0-26.41-4.7a46.12,46.12,0,0,1-17.82-13.12,53.29,53.29,0,0,1-10.09-20.35,101.6,101.6,0,0,1-3.2-26.4Z"/><path
	class="cls-1"
	d="M1033.9,159.42q0-20.85,6.73-37.16a81.52,81.52,0,0,1,18-27.41,77.72,77.72,0,0,1,26.07-17,82.11,82.11,0,0,1,30.6-5.88,80.87,80.87,0,0,1,30.44,5.88,78.11,78.11,0,0,1,25.9,17,81.69,81.69,0,0,1,18,27.41q6.72,16.32,6.72,37.16t-6.72,37.17a81.59,81.59,0,0,1-18,27.41,78,78,0,0,1-25.9,17,80.87,80.87,0,0,1-30.44,5.88,82.11,82.11,0,0,1-30.6-5.88,77.56,77.56,0,0,1-26.07-17,81.42,81.42,0,0,1-18-27.41Q1033.9,180.29,1033.9,159.42Zm50.79,0q0,21.87,7.57,34.65t23,12.78q15.14,0,22.87-12.78t7.74-34.65q0-21.85-7.74-34.64T1115.29,112q-15.46,0-23,12.78T1084.69,159.42Z"/><path
	class="cls-1"
	d="M1230.32,76h40.36l3.37,21.19h1.34a135.29,135.29,0,0,1,23.54-17.66Q1311.71,72,1328.87,72q27.24,0,39.52,17.82t12.28,49.44v103.6h-49.45v-97.2q0-18.16-4.88-24.89T1310.71,114a29.77,29.77,0,0,0-16.15,4.21,94.78,94.78,0,0,0-14.8,11.93V242.84h-49.44Z"/><path class="cls-2" d="M478.1,51.46q-12.44,0-20.51-7.23t-8.07-18.67q0-11.43,8.07-18.5T478.1,0q12.78,0,20.69,7.06t7.9,18.5q0,11.44-7.9,18.67T478.1,51.46Z"/><path
	class="cls-3"
	d="M76.36,503.32C32.67,503.32,0,469,0,418.77c0-51.31,33.67-84.09,77-84.09,19.85,0,41.29,8.14,53.12,23.51l-23.25,26.22c-6.42-9.94-17.84-14.69-28.66-14.69-23.85,0-40.89,20.8-40.89,49,0,29.17,16.63,49.06,40.28,49.06a35,35,0,0,0,30.07-16.28l23.85,25.32C119.05,493.15,100.21,503.32,76.36,503.32Z"/><path class="cls-3" d="M320.47,499l-11-31.42H254.53L244.11,499H206.83l59.53-160h33.27l58.92,160ZM282.39,381.7l-18,54.93H300Z"/><path class="cls-3" d="M509.86,438.67h-17V499H458.55V339h52.11c31.07,0,55.52,12.65,55.52,49.28C566.18,425.33,539.52,438.67,509.86,438.67Zm-2-68.5h-15v37.75h14.43c12.82,0,24.65-4.29,24.65-19.44C531.91,373.11,520.08,370.17,507.86,370.17Z"/><path class="cls-3" d="M683,499V339h34.47V499Z"/><path class="cls-3" d="M909.69,372V499H875.42V372H835.34V339H949.78v33Z"/><path class="cls-3" d="M1153.8,499l-11-31.42h-54.92L1077.44,499h-37.28l59.53-160H1133l58.92,160ZM1115.72,381.7l-18,54.93h35.68Z"/><path class="cls-3" d="M1289.88,499V339h34.47V465.34h54.92V499Z"/>
</svg>
