<?xml version="1.0" encoding="utf-8"?>
<!-- Generator: Adobe Illustrator 26.0.3, SVG Export Plug-In . SVG Version: 6.00 Build 0)  -->
<svg version="1.0" id="katman_1" xmlns="http://www.w3.org/2000/svg" xmlns:xlink="http://www.w3.org/1999/xlink" x="0px" y="0px"
	 viewBox="0 0 800 600" style="enable-background:new 0 0 800 600;" xml:space="preserve">
<style type="text/css">
	.st0{fill:#1D1D1B;}
	.st1{fill:#CFA863;}
</style>
<path class="st0" d="M644.8,351.7v-8.2h18.9v66.6h-9.4v-58.4H644.8z M584.4,351.7v-8.2h18.9v66.6H594v-58.4H584.4z M487.5,410.1
	v-60.3h3.9l39.1,45.1v-45.1h7.5v60.3h-3.8L495,365v45.1H487.5z M404.3,410.1v-60.3h47.4v6.9h-39.9v17.7h24.1v6.9h-24.1v21.8h42.3
	v6.9L404.3,410.1L404.3,410.1z M344.6,410.1H340l-29-60.3h8.1l23.2,48.3l23.2-48.3h8.3L344.6,410.1z M229.4,410.1l29.5-60.3h6.2
	l29.8,60.3h-8.1l-8.2-16.2h-33.3l-8,16.2H229.4z M248.8,386.8h26.5L262,360.1L248.8,386.8z M136,410.1v-60.3h6.9l24.3,36.9
	l24.5-36.9h6.8v60.3h-7.4V363l-23.9,35.7L143.4,363v47.1H136z"/>
<path class="st0" d="M563.4,483.9v-21.7h2.7v19.2h14.1v2.5H563.4z M499.3,483.9l10.6-21.7h2.2l10.7,21.7h-2.9L517,478h-12l-2.9,5.8
	H499.3z M506.3,475.5h9.5l-4.8-9.6L506.3,475.5z M454.6,483.9v-19.2h-9.1v-2.5h20.9v2.5h-9.1v19.2H454.6z M404.3,483.9v-21.8h2.7
	v21.8H404.3z M343.4,483.9v-21.7h12.4c2.1,0,3.7,0.5,5,1.6c1.2,1,1.8,2.5,1.8,4.3c0,1.9-0.6,3.4-1.7,4.6c-1.2,1.2-2.7,1.8-4.7,1.8
	H346v9.5H343.4z M346,471.8h9.6c1.3,0,2.4-0.3,3.1-0.9c0.7-0.6,1-1.5,1-2.6c0-1.1-0.3-2-1-2.6c-0.7-0.6-1.7-1-2.9-1H346V471.8z
	 M279.4,483.9l10.6-21.7h2.2l10.7,21.7H300l-2.9-5.8h-12l-2.9,5.8H279.4z M286.4,475.5h9.5l-4.8-9.6L286.4,475.5z M238.4,476.9
	l2.2,1.6c-1,1.9-2.4,3.3-4.1,4.3c-1.7,1-3.7,1.5-5.9,1.5c-3.2,0-5.9-1.1-8-3.2c-2.1-2.1-3.2-4.9-3.2-8.1c0-3.3,1.1-6,3.2-8.1
	c2.1-2.1,4.8-3.2,8-3.2c2,0,3.8,0.4,5.5,1.3c1.7,0.9,3,2.1,4,3.7l-2.3,1.6c-0.7-1.3-1.7-2.3-2.9-3c-1.3-0.7-2.7-1.1-4.3-1.1
	c-2.4,0-4.4,0.8-6,2.5c-1.6,1.7-2.4,3.8-2.4,6.3c0,2.6,0.8,4.7,2.4,6.3c1.6,1.7,3.6,2.5,6,2.5c1.7,0,3.2-0.4,4.5-1.3
	C236.4,479.8,237.5,478.6,238.4,476.9z"/>
<path class="st1" d="M462.8,198c0,4.2,0,51.2-0.2,54.2c-0.4,12.3-0.8,13-13.3,13h-8.9c-1.5,0-2.7,0.2-2.7,1.4v5.8
	c0,1.4,0.6,1.9,1.5,1.9c1,0,28.2-0.7,29.9-0.7c1.7,0,28,0.7,29.8,0.7c1.3,0,1.7-0.5,1.7-1.9v-5.3c0-1.2-0.6-1.9-1.9-1.9h-7
	c-12.6,0-13.3-1.6-13.5-13.7c0-3-0.2-52.4-0.2-55.1v-9.8c0-30,0.6-66.5,0.6-68.6c0-1.9-0.2-3.3-1.3-3.3c-1,0-1.7,0.7-2.7,1.4
	l-40,27.7c-1.3,0.9-1.5,1.9-1.2,2.8l1.5,4.2c0.4,0.9,1.2,0.9,1.9,0.7l13.5-5.3c3.1-1.2,6-1.9,7.7-1.9c3.7,0,4.4,5.1,4.6,13
	c0.2,18.4,0,29.3,0,32.3L462.8,198L462.8,198z"/>
<path class="st1" d="M336.9,198c0,4.2,0,51.2,0.2,54.2c0.4,12.3,0.8,13,13.3,13h8.9c1.5,0,2.7,0.2,2.7,1.4v5.8
	c0,1.4-0.6,1.9-1.5,1.9c-1,0-28.2-0.7-29.9-0.7c-1.7,0-28,0.7-29.8,0.7c-1.3,0-1.7-0.5-1.7-1.9v-5.3c0-1.2,0.6-1.9,1.9-1.9h7
	c12.6,0,13.3-1.6,13.5-13.7c0-3,0.2-52.4,0.2-55.1v-9.8c0-30-0.6-66.5-0.6-68.6c0-1.9,0.2-3.3,1.3-3.3c1,0,1.7,0.7,2.7,1.4l40,27.7
	c1.3,0.9,1.5,1.9,1.2,2.8l-1.5,4.2c-0.4,0.9-1.2,0.9-1.9,0.7l-13.5-5.3c-3.1-1.2-6-1.9-7.7-1.9c-3.7,0-4.4,5.1-4.6,13
	c-0.2,18.4,0,29.3,0,32.3V198z"/>
</svg>
