<?xml version="1.0" encoding="UTF-8"?>
<svg width="420px" height="132px" viewBox="0 0 420 132" version="1.1" xmlns="http://www.w3.org/2000/svg" xmlns:xlink="http://www.w3.org/1999/xlink">
    <title>Final Logo Dark Numeus</title>
    <g id="Final-Logo-Dark-Numeus" stroke="none" stroke-width="1" fill="none" fill-rule="evenodd">
        <path d="M41.0729532,71.2058121 L41.0729532,50.0920716 L41.1927459,50.0920716 L72.578444,89.0383632 L76.6513972,89.0383632 L76.6513972,43.9616368 L72.578444,43.9616368 L72.578444,83.0882353 L72.4586513,83.0882353 L41.0729532,43.9616368 L37,43.9616368 C37,56.0453299 37,65.0309089 37,70.9183739 C37,71.6366692 37,71.732482 37,71.2058121 L41.0729532,71.2058121 Z M37,80.6464967 L41.0685741,80.6464967 L41.0685741,89.2325398 L37,89.2325398 L37,80.6464967 Z M159.70713,80.6464967 L163.737804,80.6464967 L163.737804,89.2325398 L159.70713,89.2325398 L159.70713,80.6464967 Z M102.728535,43.9616368 L102.728535,72.7506394 L102.734028,73.2184771 C102.777976,75.0748914 103.085609,76.7520657 103.656928,78.25 C104.275857,79.8727621 105.224217,81.2551151 106.502006,82.3970588 C107.779795,83.5390026 109.40698,84.4104859 111.38356,85.011509 C113.36014,85.612532 115.726047,85.9130435 118.48128,85.9130435 C121.236513,85.9130435 123.60242,85.612532 125.579,85.011509 C127.55558,84.4104859 129.182765,83.5390026 130.460554,82.3970588 C131.738343,81.2551151 132.686702,79.8727621 133.305632,78.25 C133.924561,76.6272379 134.234025,74.7941176 134.234025,72.7506394 L134.234025,72.7506394 L134.234025,43.9616368 L138.306979,43.9616368 L138.306979,72.7506394 L138.301597,73.2800561 C138.247784,75.9071841 137.790372,78.2349744 136.929362,80.2634271 C136.010951,82.42711 134.703214,84.230179 133.00615,85.6726343 C131.309086,87.1150895 129.232678,88.1969309 126.776927,88.9181586 C124.321176,89.6393862 121.55596,90 118.48128,90 C115.4066,90 112.641384,89.6393862 110.185633,88.9181586 C107.729882,88.1969309 105.643491,87.1150895 103.926462,85.6726343 C102.209433,84.230179 100.901695,82.42711 100.00325,80.2634271 C99.1048042,78.0997442 98.6555814,75.5954817 98.6555814,72.7506394 L98.6555814,72.7506394 L98.6555814,43.9616368 L102.728535,43.9616368 Z M261.707489,44 L261.707489,48.08 L229.159024,48.08 L229.159024,63.74 L246.891094,63.74 L246.891094,67.82 L229.159024,67.82 L229.159024,84.92 L263.135575,84.92 L263.135575,89 L225.112779,89 L225.112779,44 L261.707489,44 Z M163.725256,71.2058121 L163.725256,52.0153453 L163.845049,52.0153453 L181.81396,82.7276215 L199.782871,52.0153453 L199.902664,52.0153453 L199.902664,89.0383632 L203.975617,89.0383632 L203.975617,43.9616368 L199.902664,43.9616368 L181.81396,75.3951407 L163.725256,43.9616368 L159.652303,43.9616368 L159.652303,71.2058121 L163.725256,71.2058121 Z M304.974471,90 C308.049152,90 310.814367,89.6393862 313.270118,88.9181586 C315.72587,88.1969309 317.802277,87.1150895 319.499341,85.6726343 C321.196405,84.230179 322.504142,82.42711 323.422553,80.2634271 C324.340964,78.0997442 324.80017,75.5954817 324.80017,72.7506394 L324.80017,72.7506394 L324.80017,43.9616368 L320.727217,43.9616368 L320.727217,72.7506394 C320.727217,74.7941176 320.417752,76.6272379 319.798823,78.25 C319.179894,79.8727621 318.231535,81.2551151 316.953745,82.3970588 C315.675956,83.5390026 314.048771,84.4104859 312.072191,85.011509 C310.095611,85.612532 307.729704,85.9130435 304.974471,85.9130435 C302.219238,85.9130435 299.853332,85.612532 297.876751,85.011509 C295.900171,84.4104859 294.272986,83.5390026 292.995197,82.3970588 C291.717408,81.2551151 290.769049,79.8727621 290.15012,78.25 C289.53119,76.6272379 289.221726,74.7941176 289.221726,72.7506394 L289.221726,72.7506394 L289.221726,43.9616368 L285.148773,43.9616368 L285.148773,72.7506394 C285.148773,75.5954817 285.597995,78.0997442 286.496441,80.2634271 C287.394887,82.42711 288.702624,84.230179 290.419653,85.6726343 C292.136682,87.1150895 294.223073,88.1969309 296.678824,88.9181586 C299.134575,89.6393862 301.899791,90 304.974471,90 Z M362.676892,90 C366.669984,90 370.02418,89.5893009 372.739482,88.7679028 C375.454784,87.9465047 377.650985,86.8746803 379.328083,85.5524297 C381.005181,84.230179 382.203109,82.7476556 382.921865,81.1048593 C383.640622,79.4620631 384,77.8393009 384,76.2365729 C384,74.5537084 383.660587,72.9609974 382.981762,71.4584399 C382.302936,69.9558824 381.304663,68.6236147 379.986943,67.4616368 C378.669223,66.299659 377.052021,65.3680733 375.135337,64.6668798 C373.218653,63.9656863 371.022453,63.5950554 368.546736,63.5549872 L368.546736,63.5549872 L358.004975,63.3746803 C356.687255,63.3746803 355.419449,63.2644928 354.201556,63.0441176 C352.983663,62.8237425 351.895545,62.4430946 350.937204,61.9021739 C349.978862,61.3612532 349.210192,60.6400256 348.631193,59.738491 C348.052195,58.8369565 347.762696,57.7050298 347.762696,56.342711 C347.762696,55.4211424 348.042212,54.4194373 348.601245,53.3375959 C349.160278,52.2557545 350.058723,51.2540494 351.296582,50.3324808 C352.53444,49.4109122 354.131677,48.6395993 356.088291,48.0185422 C358.044906,47.3974851 360.420796,47.0869565 363.215959,47.0869565 C365.092712,47.0869565 366.779794,47.2472293 368.277203,47.5677749 C369.774612,47.8883205 371.142246,48.3090367 372.380104,48.8299233 C373.617962,49.3508099 374.755994,49.9317988 375.794197,50.57289 C376.832401,51.2139812 377.870605,51.8550725 378.908809,52.4961637 L378.908809,52.4961637 L381.424456,49.4309463 C380.825492,49.0302643 380.036857,48.4693095 379.058549,47.7480818 C378.080242,47.0268542 376.842384,46.3156436 375.344974,45.6144501 C373.847565,44.9132566 372.07064,44.3022165 370.014198,43.7813299 C367.957755,43.2604433 365.591849,43 362.916478,43 C359.442488,43 356.487601,43.4207161 354.051815,44.2621483 C351.616029,45.1035806 349.629466,46.1653879 348.092126,47.4475703 C346.554786,48.7297528 345.43672,50.1521739 344.737929,51.7148338 C344.039138,53.2774936 343.689743,54.8000853 343.689743,56.2826087 C343.689743,58.4863598 344.128983,60.3094629 345.007463,61.7519182 C345.885943,63.1943734 347.023974,64.3363171 348.421556,65.1777494 C349.819138,66.0191816 351.356478,66.6101876 353.033577,66.9507673 C354.710675,67.291347 356.367808,67.4616368 358.004975,67.4616368 L358.004975,67.4616368 L368.307151,67.6419437 C370.263766,67.6820119 371.970812,67.9624893 373.428291,68.483376 C374.885769,69.0042626 376.093679,69.6653879 377.052021,70.4667519 C378.010363,71.2681159 378.729119,72.1796675 379.20829,73.2014066 C379.687461,74.2231458 379.927047,75.2348679 379.927047,76.2365729 C379.927047,77.9194373 379.467841,79.3618926 378.54943,80.5639386 C377.631019,81.7659847 376.383178,82.7676897 374.805907,83.5690537 C373.228636,84.3704177 371.391814,84.9614237 369.295441,85.3420716 C367.199068,85.7227195 364.992885,85.9130435 362.676892,85.9130435 C359.642143,85.9130435 357.066599,85.6025149 354.95026,84.9814578 C352.833922,84.3604007 351.037031,83.629156 349.559587,82.7877238 C348.082143,81.9462916 346.854268,81.0647911 345.87596,80.1432225 C344.897653,79.2216539 344.029156,78.4603581 343.270468,77.859335 L343.270468,77.859335 L340.455339,80.8043478 C341.253957,81.5656436 342.222282,82.4671782 343.360313,83.5089514 C344.498344,84.5507246 345.935857,85.5524297 347.672851,86.5140665 C349.409846,87.4757033 351.496236,88.2971014 353.932022,88.9782609 C356.367808,89.6594203 359.282764,90 362.676892,90 Z" id="NUMUS" fill="#434445" fill-rule="nonzero"></path>
    </g>
</svg>