<svg width="94" height="28" viewBox="0 0 94 28" fill="none" xmlns="http://www.w3.org/2000/svg">
<path fill-rule="evenodd" clip-rule="evenodd" d="M4.13222 14.5169C4.03985 14.5833 3.93292 14.6267 3.82035 14.6434C3.70779 14.66 3.59287 14.6495 3.4852 14.6127L2.85016 14.395C2.75429 14.3624 2.67106 14.3005 2.61212 14.2181C2.55318 14.1358 2.52148 14.037 2.52148 13.9357C2.52148 13.8345 2.55318 13.7357 2.61212 13.6533C2.67106 13.571 2.75429 13.5091 2.85016 13.4764L3.4852 13.2588C3.64761 13.2032 3.82459 13.208 3.98379 13.2721C4.14299 13.3363 4.27379 13.4556 4.35229 13.6083C4.43079 13.7609 4.45175 13.9367 4.41135 14.1035C4.37094 14.2703 4.27187 14.4171 4.13222 14.5169Z" fill="#0DFF81"/>
<path fill-rule="evenodd" clip-rule="evenodd" d="M3.99096 19.8419C3.94157 19.7563 3.92567 19.6554 3.94632 19.5588C3.96698 19.4621 4.02273 19.3766 4.10279 19.3187L5.58256 18.2523C5.70836 18.1615 5.86507 18.1243 6.01823 18.149C6.1714 18.1738 6.30848 18.2583 6.39933 18.3841C6.41131 18.4 6.42129 18.418 6.43128 18.434C6.46991 18.5004 6.49503 18.5738 6.50519 18.65C6.51536 18.7262 6.51037 18.8036 6.49051 18.8778C6.47065 18.952 6.43632 19.0216 6.38948 19.0825C6.34265 19.1435 6.28424 19.1945 6.2176 19.2328L6.16368 19.2607L4.50019 20.0096C4.40986 20.05 4.30776 20.0553 4.21368 20.0247C4.1196 19.9941 4.04024 19.9297 3.99096 19.8439" fill="white"/>
<path fill-rule="evenodd" clip-rule="evenodd" d="M6.43243 9.642C6.39072 9.71188 6.33521 9.77254 6.26929 9.82026C6.20337 9.86799 6.12842 9.90178 6.04901 9.91958C5.96906 9.93715 5.88632 9.9377 5.80615 9.92118C5.72599 9.90467 5.65019 9.87146 5.58371 9.82372L4.10394 8.75534C4.02398 8.69718 3.96843 8.61143 3.94804 8.51468C3.92765 8.41793 3.94387 8.31706 3.99357 8.23158C4.04327 8.1461 4.1229 8.0821 4.21707 8.05195C4.31124 8.0218 4.41324 8.02765 4.50334 8.06837L6.16683 8.81524C6.2369 8.84639 6.30015 8.89104 6.35294 8.94666C6.40574 9.00227 6.44704 9.06776 6.4745 9.13936C6.50195 9.21096 6.51501 9.28727 6.51293 9.36393C6.51085 9.44058 6.49367 9.51607 6.46238 9.58608C6.46238 9.60405 6.44441 9.62203 6.43442 9.64" fill="white"/>
<path d="M7.92978 22.0581L7.76203 27.0326H3.08909C2.46163 27.0321 1.86003 26.7826 1.41635 26.3389C0.972674 25.8953 0.723185 25.2937 0.722656 24.6662L0.722656 23.6078C3.20809 23.6114 5.66551 23.083 7.92978 22.0581Z" fill="url(#paint0_linear_3194_113)"/>
<path fill-rule="evenodd" clip-rule="evenodd" d="M20.5123 19.8429C20.4631 19.9287 20.3837 19.9931 20.2896 20.0238C20.1955 20.0544 20.0934 20.049 20.0031 20.0087L18.3396 19.2598C18.1987 19.1973 18.0884 19.0814 18.033 18.9376C17.9776 18.7938 17.9816 18.6338 18.0441 18.4929L18.074 18.435C18.1121 18.3682 18.1631 18.3096 18.224 18.2626C18.2849 18.2156 18.3545 18.1812 18.4288 18.1613C18.5031 18.1414 18.5806 18.1365 18.6568 18.1468C18.733 18.1571 18.8065 18.1825 18.8728 18.2213L18.9227 18.2533L20.4025 19.3197C20.4826 19.3776 20.5383 19.4632 20.559 19.5598C20.5796 19.6564 20.5637 19.7573 20.5143 19.8429" fill="white"/>
<path fill-rule="evenodd" clip-rule="evenodd" d="M20.4001 8.75733L18.9203 9.82572C18.7935 9.91602 18.636 9.95223 18.4824 9.92639C18.3289 9.90055 18.1919 9.81477 18.1016 9.68793L18.0736 9.64399C18.0341 9.57847 18.008 9.5058 17.9966 9.43014C17.9853 9.35449 17.989 9.27734 18.0076 9.20313C18.0261 9.12891 18.0592 9.05909 18.1048 8.99767C18.1504 8.93625 18.2076 8.88443 18.2733 8.8452C18.2915 8.83325 18.3109 8.82322 18.3312 8.81524L19.9947 8.06837C20.0848 8.02765 20.1868 8.0218 20.281 8.05195C20.3751 8.0821 20.4548 8.1461 20.5045 8.23158C20.5542 8.31706 20.5704 8.41793 20.55 8.51468C20.5296 8.61143 20.4741 8.69718 20.3941 8.75534" fill="white"/>
<path fill-rule="evenodd" clip-rule="evenodd" d="M22.1843 13.9347C22.1847 14.0359 22.1533 14.1347 22.0945 14.2171C22.0358 14.2995 21.9526 14.3614 21.8568 14.394L21.2198 14.6117C21.0409 14.67 20.8462 14.6555 20.678 14.5713C20.5098 14.487 20.3815 14.3398 20.3211 14.1617C20.2607 13.9835 20.2729 13.7887 20.3551 13.6195C20.4374 13.4503 20.583 13.3203 20.7604 13.2578C20.9095 13.2078 21.0707 13.2078 21.2198 13.2578L21.8568 13.4754C21.9524 13.5083 22.0354 13.5703 22.0941 13.6526C22.1529 13.735 22.1844 13.8336 22.1843 13.9347Z" fill="#B3D2FF"/>
<path d="M6.48196 9.17056C6.50613 9.24838 6.51417 9.33032 6.50559 9.41135C6.497 9.49239 6.47198 9.57082 6.43204 9.64185C6.39033 9.71174 6.33483 9.77239 6.26891 9.82012C6.20298 9.86784 6.12803 9.90163 6.04862 9.91943C5.96868 9.93701 5.88593 9.93755 5.80576 9.92104C5.7256 9.90452 5.64981 9.87132 5.58332 9.82358L4.10355 8.75519C4.02359 8.69703 3.96804 8.61129 3.94765 8.51454C3.92726 8.41779 3.94349 8.31691 3.99318 8.23144C4.04288 8.14596 4.12252 8.08195 4.21668 8.0518C4.31085 8.02165 4.41285 8.02751 4.50295 8.06823L6.16644 8.8151C6.24097 8.84898 6.30757 8.89812 6.36192 8.95935C6.41627 9.02058 6.45717 9.09254 6.48196 9.17056ZM6.48196 18.9079C6.4567 18.9857 6.41539 19.0574 6.3607 19.1183C6.306 19.1792 6.23915 19.2279 6.16444 19.2613L4.50095 20.0102C4.41031 20.0537 4.30661 20.0614 4.21054 20.0318C4.11448 20.0021 4.03311 19.9374 3.98269 19.8504C3.93228 19.7634 3.91651 19.6606 3.93854 19.5626C3.96057 19.4645 4.01879 19.3783 4.10156 19.3212L5.58132 18.2549C5.70712 18.164 5.86383 18.1269 6.017 18.1516C6.17016 18.1764 6.30724 18.2609 6.39809 18.3867C6.41007 18.4026 6.42006 18.4206 6.43004 18.4366C6.46998 18.5076 6.495 18.586 6.50359 18.6671C6.51217 18.7481 6.50413 18.83 6.47997 18.9079M3.48449 14.6143L2.84945 14.3967C2.75358 14.364 2.67035 14.3021 2.61141 14.2198C2.55246 14.1374 2.52077 14.0387 2.52077 13.9374C2.52077 13.8361 2.55246 13.7373 2.61141 13.655C2.67035 13.5726 2.75358 13.5107 2.84945 13.4781L3.48449 13.2604C3.5737 13.2289 3.66828 13.2155 3.76272 13.2209C3.85717 13.2262 3.94961 13.2503 4.03469 13.2917C4.11977 13.333 4.1958 13.3908 4.25837 13.4618C4.32093 13.5327 4.3688 13.6154 4.39919 13.705C4.42958 13.7946 4.44189 13.8893 4.4354 13.9837C4.42892 14.078 4.40377 14.1702 4.36141 14.2548C4.31905 14.3394 4.26033 14.4147 4.18864 14.4764C4.11696 14.5381 4.03373 14.585 3.94379 14.6143C3.79476 14.6643 3.63352 14.6643 3.48449 14.6143ZM10.8514 0.783221H7.18091C7.18038 2.49608 6.49985 4.13866 5.28887 5.35002C4.07788 6.56138 2.43551 7.24241 0.722656 7.24347L0.722656 23.6088C3.20809 23.6124 5.6655 23.084 7.92978 22.0591L8.21535 13.5999C7.71011 13.3503 7.34866 12.6873 7.34866 11.9124C7.34866 11.0397 7.80397 10.3148 8.40506 10.1511C8.48699 9.62566 8.67302 9.12189 8.95224 8.66932C8.82084 8.65336 8.69482 8.60766 8.58374 8.53568C8.47266 8.46371 8.37945 8.36735 8.3112 8.25395C7.76802 7.45515 7.03513 6.63639 6.47398 5.31239C6.42226 5.19819 6.40202 5.07224 6.41537 4.94759C6.42871 4.82294 6.47515 4.70412 6.54986 4.60346C6.60607 4.52992 6.68914 4.48169 6.78087 4.46934C6.87259 4.45698 6.96547 4.48151 7.03912 4.53755C7.0547 4.54981 7.06938 4.56316 7.08306 4.57749C7.95175 5.40025 8.99617 5.64588 9.5733 6.43469C9.61525 6.33669 9.67107 6.24522 9.73905 6.1631C9.90239 5.95132 10.1313 5.79961 10.39 5.73168C10.6487 5.66376 10.9226 5.68345 11.1689 5.78767C11.2446 5.53208 11.4009 5.30782 11.6145 5.14834C11.8281 4.98885 12.0875 4.90268 12.3541 4.90268C12.6207 4.90268 12.8801 4.98885 13.0937 5.14834C13.3073 5.30782 13.4636 5.53208 13.5393 5.78767C13.8013 5.67004 14.098 5.65578 14.3701 5.74773C15.039 4.47401 15.8641 3.28864 16.8264 2.21905C14.9772 1.27203 12.9289 0.779796 10.8514 0.783221Z" fill="url(#paint1_linear_3194_113)"/>
<path fill-rule="evenodd" clip-rule="evenodd" d="M4.13222 14.5169C4.03985 14.5833 3.93292 14.6267 3.82035 14.6434C3.70779 14.66 3.59287 14.6495 3.4852 14.6127L2.85016 14.395C2.75429 14.3624 2.67106 14.3005 2.61212 14.2181C2.55318 14.1358 2.52148 14.037 2.52148 13.9357C2.52148 13.8345 2.55318 13.7357 2.61212 13.6533C2.67106 13.571 2.75429 13.5091 2.85016 13.4764L3.4852 13.2588C3.64761 13.2032 3.82459 13.208 3.98379 13.2721C4.14299 13.3363 4.27379 13.4556 4.35229 13.6083C4.43079 13.7609 4.45175 13.9367 4.41135 14.1035C4.37094 14.2703 4.27187 14.4171 4.13222 14.5169Z" fill="#B3D2FF"/>
<path d="M21.8558 14.3934L21.2188 14.6111C21.0399 14.6694 20.8453 14.6549 20.6771 14.5706C20.5088 14.4864 20.3806 14.3392 20.3201 14.1611C20.2597 13.9829 20.2719 13.7881 20.3542 13.6189C20.4364 13.4497 20.5821 13.3197 20.7595 13.2571C20.9085 13.2072 21.0698 13.2072 21.2188 13.2571L21.8558 13.4748C21.9517 13.5075 22.0349 13.5694 22.0939 13.6517C22.1528 13.7341 22.1845 13.8328 22.1845 13.9341C22.1845 14.0354 22.1528 14.1342 22.0939 14.2165C22.0349 14.2989 21.9517 14.3607 21.8558 14.3934ZM20.5119 19.8412C20.4626 19.927 20.3832 19.9915 20.2892 20.0221C20.1951 20.0527 20.093 20.0473 20.0026 20.007L18.3392 19.2581C18.1983 19.1956 18.088 19.0797 18.0326 18.9359C17.9771 18.7921 17.9811 18.6321 18.0436 18.4912L18.0736 18.4333C18.1116 18.3665 18.1626 18.3079 18.2235 18.2609C18.2844 18.2139 18.354 18.1795 18.4283 18.1596C18.5026 18.1397 18.5801 18.1348 18.6563 18.1451C18.7326 18.1554 18.806 18.1808 18.8723 18.2197L18.9223 18.2516L20.402 19.318C20.4821 19.3759 20.5379 19.4615 20.5585 19.5581C20.5792 19.6548 20.5633 19.7556 20.5139 19.8412M18.0216 9.16931C18.0469 9.09147 18.0882 9.01978 18.1429 8.9589C18.1976 8.89802 18.2644 8.84928 18.3392 8.81585L20.0026 8.06897C20.0927 8.02825 20.1947 8.0224 20.2889 8.05255C20.3831 8.0827 20.4627 8.1467 20.5124 8.23218C20.5621 8.31766 20.5783 8.41853 20.5579 8.51528C20.5376 8.61203 20.482 8.69778 20.402 8.75594L18.9223 9.82433C18.7954 9.91462 18.6379 9.95083 18.4844 9.92499C18.3308 9.89915 18.1938 9.81338 18.1035 9.68653L18.0755 9.6426C18.034 9.57186 18.0077 9.49319 17.9984 9.41167C17.9891 9.33015 17.997 9.24759 18.0216 9.16931ZM17.9557 2.87082C17.5903 2.63517 17.2148 2.4175 16.8254 2.2178C15.8632 3.28739 15.0381 4.47276 14.3691 5.74648C14.6057 5.82223 14.8143 5.96686 14.9682 6.16185C15.0344 6.24527 15.09 6.33648 15.134 6.43344C15.6752 5.69256 16.6277 5.52481 17.4625 4.73001C17.5433 4.64594 17.6515 4.5935 17.7676 4.58215C17.8836 4.5708 17.9999 4.60128 18.0955 4.66811C18.1388 4.69659 18.1761 4.73322 18.2054 4.77594C18.2601 4.84574 18.2944 4.92931 18.3047 5.01741C18.3149 5.10551 18.3005 5.19472 18.2633 5.27519L18.2393 5.33111C17.6801 6.62915 16.9512 7.4559 16.4121 8.2527C16.3425 8.36704 16.2476 8.46393 16.1348 8.53593C16.0219 8.60793 15.8941 8.65313 15.761 8.66807C16.038 9.12079 16.2207 9.62479 16.2982 10.1498C16.8394 10.2976 17.2608 10.8967 17.3407 11.6516C17.3503 11.7378 17.355 11.8244 17.3546 11.9112C17.3546 12.6401 17.0351 13.2711 16.5738 13.5487C16.5468 13.568 16.5181 13.5847 16.4879 13.5986V13.7244L16.8873 25.5586C19.0212 24.4513 20.81 22.7792 22.0584 20.7247C23.3068 18.6702 23.9669 16.3122 23.9667 13.9082C23.9685 11.7123 23.4192 9.55118 22.369 7.62279C21.3188 5.6944 19.8013 4.06048 17.9557 2.87082Z" fill="url(#paint2_linear_3194_113)"/>
<path d="M14.8482 13.1643C14.9199 13.2933 14.9538 13.4397 14.946 13.587C14.9382 13.7343 14.8891 13.8764 14.8043 13.9971C14.2351 14.8278 13.4383 15.4589 12.4239 15.4589H12.2082C11.3315 15.383 10.4109 14.8099 9.84176 14.1209C9.7391 13.9954 9.67704 13.8417 9.66385 13.6801C9.65065 13.5185 9.68693 13.3567 9.76787 13.2163C9.99119 12.8441 10.1092 12.4182 10.1094 11.9841C10.1095 11.5767 10.0094 11.1755 9.8178 10.8159C9.74751 10.688 9.71438 10.543 9.72214 10.3972C9.72991 10.2515 9.77825 10.1108 9.86173 9.99113C9.90534 10.0494 9.95561 10.1023 10.0115 10.1489C10.2126 10.3071 10.4602 10.3947 10.7161 10.3984C10.9719 10.402 11.2219 10.3213 11.4274 10.1689C11.4274 10.6222 11.8847 10.9896 12.4458 10.9896C12.497 10.9936 12.5484 10.9936 12.5996 10.9896C13.0909 10.9297 13.4663 10.5902 13.4663 10.1788C13.6747 10.3348 13.9292 10.4165 14.1894 10.4111C14.4496 10.4057 14.7004 10.3134 14.9021 10.1489L14.958 10.099C14.9951 10.2091 15.0078 10.3261 14.995 10.4416C14.9822 10.5572 14.9444 10.6685 14.8842 10.768C14.6634 11.138 14.5474 11.5612 14.5487 11.9921C14.5491 12.4036 14.652 12.8086 14.8482 13.1703M18.2011 4.777C18.1719 4.73427 18.1346 4.69765 18.0913 4.66916C17.9964 4.60449 17.8818 4.57525 17.7675 4.58657C17.6533 4.59789 17.5466 4.64904 17.4663 4.73107C16.6315 5.52987 15.669 5.69362 15.1378 6.4345C15.0938 6.33753 15.0382 6.24632 14.972 6.16291C14.8181 5.96792 14.6095 5.82329 14.3729 5.74754C14.1009 5.65559 13.8041 5.66985 13.5422 5.78748C13.4665 5.53189 13.3101 5.30763 13.0965 5.14814C12.883 4.98866 12.6235 4.90249 12.357 4.90249C12.0904 4.90249 11.831 4.98866 11.6174 5.14814C11.4038 5.30763 11.2475 5.53189 11.1718 5.78748C10.9254 5.68325 10.6515 5.66357 10.3928 5.73149C10.1342 5.79942 9.90525 5.95112 9.74191 6.16291C9.67393 6.24503 9.61811 6.33649 9.57616 6.4345C8.99903 5.64569 7.95461 5.40006 7.08592 4.5773C7.05537 4.543 7.01832 4.5151 6.97692 4.49521C6.93551 4.47532 6.89058 4.46383 6.84471 4.46142C6.79884 4.459 6.75294 4.46571 6.70968 4.48114C6.66642 4.49658 6.62665 4.52044 6.59266 4.55134C6.57467 4.56667 6.55858 4.5841 6.54474 4.60326C6.47002 4.70393 6.42359 4.82274 6.41024 4.94739C6.3969 5.07204 6.41714 5.198 6.46885 5.31219C7.03 6.6362 7.7629 7.45097 8.30608 8.25375C8.37513 8.36815 8.46959 8.46512 8.58214 8.53715C8.69468 8.60918 8.8223 8.65434 8.9551 8.66913C8.67588 9.1217 8.48985 9.62547 8.40792 10.1509C7.80883 10.3146 7.35152 11.0396 7.35152 11.9122C7.35152 12.6871 7.71297 13.3501 8.21821 13.5997L7.93264 22.0589L7.76489 27.0334H10.8522C12.9297 27.0368 14.9781 26.5446 16.8272 25.5976L16.8971 25.5596L16.4997 13.7255V13.5997C16.5298 13.5858 16.5586 13.569 16.5856 13.5498C17.0469 13.2722 17.3664 12.6411 17.3664 11.9122C17.3667 11.8255 17.3621 11.7388 17.3524 11.6526C17.2725 10.8978 16.8512 10.2987 16.31 10.1509C16.2303 9.6249 16.0441 9.12071 15.7628 8.66913C15.8958 8.65419 16.0237 8.60899 16.1365 8.53698C16.2494 8.46498 16.3442 8.3681 16.4138 8.25375C16.953 7.45496 17.6819 6.6302 18.2411 5.33216L18.265 5.27625C18.3023 5.19578 18.3167 5.10656 18.3064 5.01846C18.2962 4.93036 18.2619 4.8468 18.2071 4.777" fill="url(#paint3_linear_3194_113)"/>
<path d="M7.18091 0.783203C7.18038 2.49606 6.49985 4.13864 5.28887 5.35C4.07788 6.56136 2.43551 7.24239 0.722656 7.24345L0.722656 3.14963C0.723185 2.52218 0.972674 1.92058 1.41635 1.4769C1.86003 1.03322 2.46163 0.783732 3.08909 0.783203L7.18091 0.783203Z" fill="url(#paint4_linear_3194_113)"/>
<path fill-rule="evenodd" clip-rule="evenodd" d="M13.5389 12.2082L12.8739 12.8193C12.8166 12.8734 12.7757 12.9426 12.7561 13.0189C12.7122 13.1947 12.6263 13.5402 12.5564 13.8677C12.5455 13.912 12.5197 13.9512 12.4834 13.9788C12.447 14.0064 12.4023 14.0208 12.3567 14.0194C12.3111 14.0208 12.2664 14.0064 12.2301 13.9788C12.1937 13.9512 12.1679 13.912 12.157 13.8677L11.9453 13.0189C11.9267 12.9422 11.8857 12.8727 11.8275 12.8193L11.1625 12.2082C11.1253 12.1708 11.1044 12.1201 11.1044 12.0674C11.1044 12.0146 11.1253 11.964 11.1625 11.9266C11.1839 11.9037 11.2105 11.8861 11.24 11.8753C11.2695 11.8646 11.3011 11.8609 11.3323 11.8647L12.3307 12.0005H12.3847L12.4625 11.9905L13.3832 11.8647C13.4239 11.8606 13.4649 11.8692 13.5006 11.8892C13.5363 11.9092 13.565 11.9397 13.5829 11.9765C13.6008 12.015 13.6061 12.0582 13.5978 12.0999C13.5895 12.1415 13.5682 12.1795 13.5369 12.2082M14.5354 11.9845C14.5395 11.5552 14.6596 11.135 14.8829 10.7683C14.9403 10.6692 14.9758 10.5589 14.9868 10.4448C14.9978 10.3307 14.9842 10.2157 14.9468 10.1073L14.9009 10.1493C14.698 10.3087 14.448 10.3964 14.19 10.3986C13.932 10.4007 13.6805 10.3173 13.475 10.1613C13.475 10.5686 13.1036 10.9121 12.6083 10.968C12.5571 10.972 12.5057 10.972 12.4546 10.968C11.8934 10.968 11.4361 10.6006 11.4361 10.1473C11.2306 10.3033 10.9791 10.3868 10.7211 10.3846C10.4631 10.3824 10.2131 10.2947 10.0102 10.1353C9.95435 10.0887 9.90408 10.0358 9.86047 9.97754C9.777 10.0973 9.72865 10.2379 9.72088 10.3837C9.71312 10.5294 9.74625 10.6744 9.81654 10.8023C10.0107 11.1659 10.1109 11.5723 10.1081 11.9845C10.1095 12.4137 9.99498 12.8352 9.7766 13.2047C9.69566 13.3451 9.65938 13.5069 9.67257 13.6685C9.68577 13.8301 9.74782 13.9838 9.85049 14.1093C10.4236 14.7983 11.3402 15.3714 12.2169 15.4473H12.4326C13.4471 15.4473 14.2439 14.8162 14.813 13.9855C14.8939 13.8652 14.9399 13.7248 14.9459 13.5799C14.9519 13.435 14.9177 13.2913 14.8469 13.1647C14.6507 12.803 14.5478 12.398 14.5474 11.9865" fill="#B3D2FF"/>
<path fill-rule="evenodd" clip-rule="evenodd" d="M13.54 12.2074L12.875 12.8185C12.8176 12.8726 12.7768 12.9418 12.7571 13.0182C12.7132 13.1939 12.6273 13.5394 12.5574 13.8669C12.5465 13.9112 12.5207 13.9504 12.4844 13.978C12.4481 14.0057 12.4034 14.02 12.3577 14.0187C12.3121 14.02 12.2674 14.0057 12.2311 13.978C12.1948 13.9504 12.169 13.9112 12.158 13.8669L11.9464 13.0182C11.9277 12.9414 11.8867 12.8719 11.8285 12.8185L11.1635 12.2074C11.1263 12.17 11.1055 12.1194 11.1055 12.0666C11.1055 12.0139 11.1263 11.9632 11.1635 11.9258C11.185 11.9029 11.2115 11.8853 11.241 11.8746C11.2705 11.8638 11.3021 11.8602 11.3333 11.8639L12.3318 11.9997H12.3857L12.4636 11.9897L13.3842 11.8639C13.4249 11.8598 13.4659 11.8684 13.5016 11.8884C13.5374 11.9084 13.5661 11.9389 13.5839 11.9757C13.6019 12.0142 13.6071 12.0574 13.5988 12.0991C13.5906 12.1407 13.5692 12.1787 13.538 12.2074" fill="#003580"/>
<path d="M39.494 14.7065C39.5081 15.3709 39.3946 16.0319 39.1594 16.6535C38.9532 17.1825 38.6288 17.6574 38.2111 18.042C37.7912 18.423 37.2933 18.708 36.7521 18.8771C36.1376 19.069 35.4966 19.1624 34.8529 19.1538C34.6969 19.1538 34.5183 19.1538 34.3196 19.1538C34.1209 19.1538 33.9146 19.1287 33.7084 19.106C33.5021 19.0834 33.2883 19.0482 33.0745 19.0079C32.876 18.9697 32.6808 18.9159 32.4909 18.847C32.2813 18.7941 32.0959 18.6718 31.9648 18.5001C31.8337 18.3283 31.7646 18.1172 31.7689 17.9011V11.2728C31.7637 11.1951 31.7739 11.117 31.7989 11.0432C31.8239 10.9694 31.8633 10.9012 31.9148 10.8427C32.0333 10.726 32.1783 10.6397 32.3374 10.5911C32.7308 10.4681 33.1366 10.3888 33.5474 10.3547C33.9725 10.3169 34.3624 10.2993 34.7146 10.2993C35.3724 10.2875 36.0283 10.3722 36.6615 10.5509C37.2171 10.7102 37.7319 10.9873 38.1708 11.3634C38.5956 11.7421 38.9286 12.2127 39.1443 12.7394C39.3912 13.3651 39.5101 14.034 39.494 14.7065ZM37.23 14.7341C37.23 13.8361 37.0112 13.1645 36.571 12.7217C36.3445 12.5007 36.0754 12.3283 35.7799 12.215C35.4845 12.1016 35.1691 12.0498 34.8529 12.0627C34.6869 12.0627 34.5284 12.0627 34.3825 12.0753C34.233 12.0846 34.0842 12.104 33.9373 12.1331V17.305C34.0814 17.3369 34.2277 17.3579 34.375 17.3678C34.546 17.3829 34.7095 17.3905 34.8781 17.3905C35.1955 17.406 35.5126 17.3552 35.8093 17.2413C36.106 17.1274 36.3757 16.9529 36.6012 16.7289C37.0288 16.2887 37.2401 15.6246 37.2401 14.7316L37.23 14.7341Z" fill="#24355B"/>
<path d="M42.6083 16.4954C42.6586 16.6729 42.7452 16.8381 42.8625 16.9806C42.9798 17.123 43.1254 17.2396 43.29 17.323C43.6396 17.4947 44.025 17.581 44.4145 17.5745C45.091 17.5759 45.7564 17.4026 46.3464 17.0714C46.4877 17.1655 46.607 17.2891 46.696 17.4337C46.7865 17.5794 46.8344 17.7476 46.8344 17.9191C46.838 18.1228 46.7683 18.3209 46.6382 18.4776C46.4919 18.6472 46.3097 18.7821 46.1049 18.8725C45.8478 18.9878 45.5761 19.0673 45.2974 19.109C44.9595 19.1614 44.618 19.1866 44.2761 19.1844C43.764 19.189 43.2545 19.1117 42.7668 18.9555C42.3211 18.8101 41.9112 18.5718 41.5644 18.2562C41.2211 17.9426 40.9529 17.5557 40.7796 17.1243C40.5789 16.6153 40.4823 16.0713 40.4953 15.5244C40.4821 14.9954 40.5789 14.4695 40.7796 13.9799C40.9471 13.5755 41.2006 13.2124 41.5225 12.9157C41.8443 12.619 42.2269 12.3959 42.6436 12.2618C43.0497 12.1295 43.4741 12.0616 43.9013 12.0606C44.3441 12.0558 44.7844 12.129 45.2018 12.2769C45.5739 12.4094 45.916 12.6147 46.208 12.8806C46.4917 13.1417 46.7171 13.4597 46.8696 13.8139C47.0301 14.1863 47.1106 14.5882 47.106 14.9936C47.1155 15.1155 47.0994 15.238 47.0587 15.3532C47.0179 15.4685 46.9535 15.5739 46.8696 15.6628C46.681 15.8236 46.4491 15.9251 46.203 15.9546L42.6083 16.4954ZM43.929 13.6328C43.5626 13.621 43.206 13.7528 42.9354 14C42.6535 14.2849 42.4869 14.6638 42.4675 15.0641L45.1238 14.6339C45.1115 14.4894 45.0708 14.3487 45.004 14.2199C44.9373 14.0911 44.8458 13.9767 44.7349 13.8833C44.6239 13.7898 44.4956 13.7192 44.3573 13.6753C44.2191 13.6315 44.0735 13.6153 43.929 13.6277V13.6328Z" fill="#24355B"/>
<path d="M50.4065 12.7492H52.771C52.8163 12.8423 52.8641 12.958 52.9169 13.0964C52.9686 13.2434 52.9942 13.3983 52.9924 13.5542C53.0033 13.6687 52.9911 13.7843 52.9565 13.8941C52.9219 14.0038 52.8657 14.1055 52.7911 14.1931C52.7218 14.2589 52.64 14.3101 52.5506 14.3438C52.4612 14.3775 52.3659 14.393 52.2704 14.3893H50.5096V18.9348C50.3816 18.9693 50.2513 18.9946 50.1197 19.0103C49.9354 19.0345 49.7497 19.0463 49.5638 19.0455C49.2494 19.0707 48.9347 19.0005 48.6607 18.8443C48.4746 18.7101 48.3815 18.4485 48.3815 18.0594V12.1506C48.3729 11.7447 48.451 11.3416 48.6104 10.9683C48.7527 10.6501 48.9703 10.3712 49.2443 10.1558C49.5255 9.94516 49.8451 9.79137 50.1851 9.70299C50.5651 9.5976 50.958 9.54595 51.3523 9.54954C51.854 9.51812 52.3562 9.60425 52.8188 9.80109C52.9717 9.87858 53.0989 9.99868 53.1851 10.1469C53.2712 10.2951 53.3126 10.465 53.3043 10.6362C53.3075 10.7976 53.2712 10.9574 53.1986 11.1016C53.1379 11.2223 53.0522 11.3286 52.9471 11.4135C52.762 11.3568 52.5739 11.3106 52.3836 11.2752C52.1611 11.236 51.9354 11.2175 51.7095 11.2198C51.3694 11.1973 51.0304 11.277 50.736 11.4487C50.6206 11.5388 50.5299 11.6566 50.4723 11.7912C50.4146 11.9258 50.392 12.0728 50.4065 12.2185V12.7492ZM54.1596 10.3444C54.157 10.1948 54.1847 10.0462 54.2409 9.90742C54.2971 9.76869 54.3806 9.6427 54.4866 9.53697C54.7191 9.32127 55.0246 9.20142 55.3418 9.20142C55.659 9.20142 55.9645 9.32127 56.1971 9.53697C56.303 9.6427 56.3866 9.76869 56.4428 9.90742C56.499 10.0462 56.5266 10.1948 56.5241 10.3444C56.5272 10.496 56.4998 10.6467 56.4436 10.7876C56.3875 10.9284 56.3036 11.0566 56.1971 11.1645C55.9645 11.3802 55.659 11.5 55.3418 11.5C55.0246 11.5 54.7191 11.3802 54.4866 11.1645C54.38 11.0566 54.2962 10.9284 54.24 10.7876C54.1839 10.6467 54.1565 10.496 54.1596 10.3444ZM56.3983 18.9348C56.2704 18.9696 56.1401 18.9948 56.0084 19.0103C55.8241 19.0345 55.6384 19.0463 55.4525 19.0455C55.1405 19.0709 54.8282 19.0007 54.557 18.8443C54.3759 18.7101 54.2853 18.4485 54.2853 18.0594V12.3442C54.4135 12.3088 54.5437 12.281 54.6752 12.2612C54.8591 12.2327 55.0451 12.2192 55.2312 12.221C55.5443 12.1931 55.8581 12.2663 56.1267 12.4298C56.3078 12.5673 56.3983 12.8314 56.3983 13.2222V18.9348Z" fill="#24355B"/>
<path d="M58.5319 18.6618C58.4261 18.5499 58.3439 18.4179 58.2903 18.2735C58.2367 18.1291 58.2128 17.9754 58.22 17.8216V10.494L58.6577 10.4261C58.8442 10.3983 59.0326 10.384 59.2212 10.3833C59.5365 10.358 59.852 10.4309 60.1242 10.5921C60.3104 10.7305 60.4034 11.0047 60.4034 11.4122V17.1978H63.739C63.804 17.3123 63.8579 17.4327 63.9 17.5575C63.9517 17.7149 63.9772 17.8798 63.9754 18.0455C63.9948 18.2913 63.9232 18.5357 63.7742 18.7322C63.7058 18.8092 63.621 18.8699 63.5262 18.9099C63.4313 18.95 63.3287 18.9683 63.2258 18.9637H59.3746C59.2211 18.9727 59.0673 18.9506 58.9225 18.8987C58.7777 18.8469 58.6448 18.7663 58.5319 18.6618Z" fill="#24355B"/>
<path d="M66.384 19.0443C66.0719 19.0704 65.7594 19.0001 65.4885 18.8431C65.3074 18.7089 65.2168 18.4473 65.2168 18.0583V9.89804C65.3466 9.86239 65.4785 9.83467 65.6117 9.81503C65.7981 9.78578 65.9865 9.77148 66.1752 9.77227C66.4865 9.74808 66.7976 9.82103 67.0657 9.98105C67.2518 10.1194 67.3424 10.3835 67.3424 10.7734V18.9337C67.2099 18.9673 67.0755 18.9925 66.9399 19.0091C66.7556 19.0333 66.5699 19.0451 66.384 19.0443Z" fill="#24355B"/>
<path d="M71.6668 12.052C72.1087 12.0485 72.5495 12.0974 72.9798 12.1979C73.3413 12.2825 73.683 12.4363 73.986 12.6507C74.2619 12.853 74.4839 13.1199 74.6325 13.428C74.7914 13.7776 74.8696 14.1584 74.8614 14.5423V17.6842C74.8742 17.8896 74.8116 18.0926 74.6853 18.2552C74.5563 18.4013 74.4042 18.5254 74.2351 18.6224C73.9072 18.8139 73.5504 18.9507 73.1786 19.0274C72.7119 19.1238 72.2363 19.1701 71.7598 19.1658C70.8039 19.1658 70.0434 18.983 69.4783 18.6174C69.2014 18.4381 68.977 18.1886 68.8281 17.8943C68.6792 17.6 68.611 17.2714 68.6306 16.9421C68.6137 16.6727 68.6561 16.403 68.7547 16.1518C68.8534 15.9006 69.0059 15.674 69.2016 15.4881C69.5806 15.1528 70.1675 14.9448 70.9624 14.8643L72.8113 14.6681V14.5172C72.8186 14.3854 72.7888 14.2542 72.7252 14.1386C72.6616 14.023 72.5668 13.9275 72.4516 13.8631C72.1273 13.7049 71.7678 13.633 71.4077 13.6544C71.0583 13.6532 70.7102 13.6955 70.3713 13.7801C70.0606 13.8537 69.7562 13.9512 69.4607 14.0719C69.3345 13.9844 69.2331 13.8656 69.1664 13.7273C69.0865 13.5718 69.0459 13.399 69.0481 13.2242C69.046 13.0289 69.107 12.8381 69.2222 12.6804C69.3373 12.5226 69.5004 12.4063 69.6871 12.3488C69.9903 12.2376 70.305 12.1608 70.6253 12.1199C70.9705 12.0733 71.3185 12.0506 71.6668 12.052ZM71.7498 17.5861C71.9525 17.5862 72.1548 17.5659 72.3535 17.5257C72.5124 17.498 72.6655 17.4435 72.8063 17.3647V16.0994L71.6668 16.195C71.4161 16.2097 71.1715 16.2783 70.9498 16.3962C70.8643 16.443 70.7935 16.5128 70.7455 16.5977C70.6975 16.6826 70.6742 16.7792 70.6782 16.8767C70.6746 16.9785 70.6956 17.0796 70.7394 17.1716C70.7831 17.2635 70.8484 17.3436 70.9297 17.4049C71.1781 17.5579 71.4694 17.6259 71.7598 17.5986L71.7498 17.5861Z" fill="#24355B"/>
<path d="M86.5358 18.9361C86.4034 18.9699 86.269 18.9952 86.1333 19.0116C85.949 19.0358 85.7633 19.0476 85.5774 19.0468C85.2654 19.0725 84.9529 19.0023 84.6819 18.8455C84.5008 18.7114 84.4102 18.4498 84.4102 18.0607V14.612C84.4208 14.488 84.4038 14.3632 84.3603 14.2466C84.3168 14.13 84.2479 14.0246 84.1587 13.9378C83.9679 13.7903 83.7304 13.7162 83.4896 13.7291C83.3105 13.7278 83.1328 13.7611 82.9663 13.8272C82.8093 13.8899 82.6619 13.9746 82.5286 14.0787C82.5386 14.1244 82.5462 14.1706 82.5513 14.2171C82.5513 14.2623 82.5513 14.3101 82.5513 14.3554V18.9361C82.4188 18.9697 82.2844 18.9949 82.1488 19.0116C81.9645 19.0358 81.7788 19.0476 81.5929 19.0468C81.2808 19.0728 80.9683 19.0026 80.6974 18.8455C80.5163 18.7114 80.4257 18.4498 80.4257 18.0607V14.612C80.436 14.4855 80.416 14.3584 80.3674 14.2412C80.3189 14.124 80.2432 14.02 80.1465 13.9378C79.9495 13.793 79.7091 13.7194 79.4648 13.7291C79.2847 13.7267 79.1056 13.7574 78.9365 13.8196C78.8033 13.8688 78.6738 13.9276 78.5492 13.9957V18.9361C78.4212 18.9706 78.2909 18.9958 78.1593 19.0116C77.9749 19.0358 77.7892 19.0476 77.6033 19.0468C77.2889 19.072 76.9742 19.0018 76.7003 18.8455C76.5141 18.7114 76.4211 18.4498 76.4211 18.0607V13.7643C76.4113 13.5586 76.4649 13.3549 76.5745 13.1807C76.6921 13.0172 76.8378 12.8758 77.0046 12.7631C77.3524 12.5339 77.7358 12.3639 78.1391 12.26C78.5978 12.1277 79.073 12.0616 79.5503 12.0638C79.9244 12.0624 80.2965 12.1167 80.6546 12.2248C81.0002 12.3334 81.3233 12.5039 81.608 12.7279C81.9018 12.5341 82.2187 12.3778 82.5513 12.2625C82.9566 12.1281 83.3821 12.0643 83.809 12.0739C84.1588 12.0729 84.5073 12.1177 84.8454 12.2072C85.1611 12.2896 85.4565 12.436 85.7133 12.6373C85.9718 12.8474 86.1784 13.1142 86.317 13.4171C86.4791 13.7817 86.5574 14.178 86.5459 14.5768L86.5358 18.9361Z" fill="#24355B"/>
<path d="M90.8049 12.052C91.2468 12.0482 91.6876 12.0972 92.1179 12.1979C92.4796 12.2821 92.8213 12.4358 93.1241 12.6507C93.4007 12.8522 93.6229 13.1193 93.7706 13.428C93.931 13.7771 94.0093 14.1583 93.9995 14.5424V17.6842C94.0096 17.8925 93.9434 18.0972 93.8134 18.2602C93.6839 18.407 93.5309 18.5311 93.3606 18.6275C93.0332 18.8198 92.6762 18.9567 92.3041 19.0325C91.8374 19.1288 91.3618 19.1752 90.8854 19.1708C89.9312 19.1708 89.1715 18.9881 88.6063 18.6225C88.3305 18.4427 88.1073 18.1928 87.9597 17.8984C87.812 17.6041 87.7453 17.2758 87.7662 16.9472C87.7474 16.6775 87.7882 16.4071 87.8855 16.155C87.9829 15.9028 88.1345 15.6752 88.3296 15.4882C88.7086 15.1528 89.2956 14.9448 90.0905 14.8643L91.9393 14.6681V14.5172C91.9467 14.3851 91.9167 14.2537 91.8526 14.1379C91.7885 14.0222 91.693 13.927 91.5771 13.8632C91.2531 13.704 90.8936 13.6312 90.5332 13.6519C90.1838 13.6504 89.8357 13.6927 89.4968 13.7776C89.1861 13.8508 88.8816 13.9484 88.5862 14.0694C88.462 13.9814 88.3617 13.8639 88.2944 13.7273C88.2153 13.5716 88.1756 13.3989 88.1787 13.2242C88.1757 13.0287 88.2365 12.8376 88.3517 12.6797C88.467 12.5218 88.6305 12.4056 88.8176 12.3489C89.1208 12.2376 89.4356 12.1608 89.7559 12.1199C90.1036 12.0729 90.4541 12.0502 90.8049 12.052ZM90.8879 17.5861C91.0915 17.5861 91.2945 17.5659 91.4941 17.5257C91.6524 17.4985 91.8047 17.444 91.9444 17.3647V16.0994L90.8049 16.195C90.5542 16.2097 90.3096 16.2783 90.088 16.3963C90.0031 16.4436 89.9329 16.5136 89.8854 16.5984C89.8379 16.6833 89.8148 16.7796 89.8188 16.8767C89.8154 16.9785 89.8365 17.0796 89.8803 17.1715C89.924 17.2634 89.9892 17.3435 90.0703 17.405C90.3151 17.5553 90.6017 17.6232 90.8879 17.5987V17.5861Z" fill="#24355B"/>
<defs>
<linearGradient id="paint0_linear_3194_113" x1="4.98622" y1="28.8299" x2="4.49297" y2="24.796" gradientUnits="userSpaceOnUse">
<stop offset="0.29" stop-color="#3A8BFF"/>
<stop offset="1" stop-color="#81B5FF"/>
</linearGradient>
<linearGradient id="paint1_linear_3194_113" x1="11.3566" y1="-1.9207" x2="1.62329" y2="23.1535" gradientUnits="userSpaceOnUse">
<stop offset="0.29" stop-color="#0062EE"/>
<stop offset="1" stop-color="#00398A"/>
</linearGradient>
<linearGradient id="paint2_linear_3194_113" x1="16.2862" y1="26.8666" x2="19.5833" y2="8.02304" gradientUnits="userSpaceOnUse">
<stop offset="0.29" stop-color="#0062EE"/>
<stop offset="1" stop-color="#00398A"/>
</linearGradient>
<linearGradient id="paint3_linear_3194_113" x1="12.358" y1="33.238" x2="12.358" y2="15.7385" gradientUnits="userSpaceOnUse">
<stop offset="0.29" stop-color="#B3D2FF"/>
<stop offset="1" stop-color="white"/>
</linearGradient>
<linearGradient id="paint4_linear_3194_113" x1="7.66418" y1="6.32085" x2="1.57337" y2="2.53456" gradientUnits="userSpaceOnUse">
<stop offset="0.29" stop-color="#3A8BFF"/>
<stop offset="1" stop-color="#81B5FF"/>
</linearGradient>
</defs>
</svg>
