<svg width="595" height="292" viewBox="0 0 595 292" fill="none" xmlns="http://www.w3.org/2000/svg">
<path d="M1.67664 288.426V157.641H31.0027V288.426H1.67664Z" fill="#02010A"/>
<path d="M370.913 258.244C370.913 241.547 362.137 230.416 341.159 225.064L322.322 219.927C315.9 218.429 310.121 216.074 310.121 210.08C310.121 204.943 315.258 201.946 322.75 201.946C329.172 201.946 335.379 204.729 336.878 212.863H366.418C364.706 191.457 346.725 179.042 323.178 179.042C296.421 179.042 280.152 192.313 280.152 210.722C280.152 226.349 288.715 239.192 307.338 243.902L327.459 249.039C336.878 251.394 340.945 254.176 340.945 259.742C340.945 264.879 336.236 268.304 327.031 268.304C317.613 268.304 309.478 263.809 308.408 254.39H277.798C278.868 275.368 298.561 290.78 326.175 290.78C352.076 290.78 370.913 278.365 370.913 258.244Z" fill="#02010A"/>
<path fill-rule="evenodd" clip-rule="evenodd" d="M70.4933 207.396H42.1472V248.107C42.1472 269.109 58.7842 290.78 91.9159 290.78C106.534 290.78 118.321 283.441 123.128 276.649V288.442V288.443H151.484V288.442V288.425H151.531V260.018H151.484V219.187V219.186C151.484 210.423 148.675 202.316 143.91 195.716C136.62 185.62 124.751 179.05 111.348 179.05L70.4933 179.05V179.051V207.396ZM123.128 223.475C123.128 220.15 122.117 217.061 120.386 214.499C117.501 210.228 112.615 207.421 107.073 207.421L70.5029 207.421V243.963C70.5029 252.83 77.6907 260.018 86.5573 260.018L123.128 260.018V223.476V223.475Z" fill="#02010A"/>
<path fill-rule="evenodd" clip-rule="evenodd" d="M163.45 157.641V288.426H192.776V276.439C197.699 283.288 209.045 290.78 223.815 290.78C252.285 290.78 274.119 265.307 274.119 234.911C274.119 204.515 252.285 179.042 223.815 179.042C209.045 179.042 197.699 186.534 192.776 193.384V157.641H163.45ZM217.393 264.023C233.447 264.023 244.364 251.608 244.364 234.911C244.364 218.214 233.447 205.799 217.393 205.799C201.338 205.799 190.421 218.214 190.421 234.911C190.421 251.608 201.338 264.023 217.393 264.023Z" fill="#02010A"/>
<path d="M483.96 50.5793V22.36H446.445V0.780518H418.225V22.36H398.306V50.5793H418.225V91.7462C418.225 114.986 435.821 131.585 459.06 131.585H477.32V103.366H465.7C454.08 103.366 446.445 96.7261 446.445 85.1064V50.5793H483.96ZM565.63 103.366V131.585H524.463C501.223 131.585 483.96 114.986 483.96 91.7462V50.5793H512.179V85.1064C512.179 96.7261 519.483 103.366 531.102 103.366H565.63ZM512.179 50.5793V22.36H553.346C576.585 22.36 593.849 38.9596 593.849 62.199V103.366H565.63V68.8388C565.63 57.2191 558.326 50.5793 546.706 50.5793H512.179Z" fill="#02010A"/>
<path d="M322.365 129.235H293.093V22.4023H322.365V34.5812C327.92 26.0346 339.031 20.052 352.919 20.052C378.773 20.052 394.157 38.8545 394.157 66.631V129.235H364.884V71.5453C364.884 56.1614 358.261 46.7602 346.082 46.7602C332.621 46.7602 322.365 56.5888 322.365 77.1006V129.235Z" fill="#02010A"/>
<path fill-rule="evenodd" clip-rule="evenodd" d="M253.137 94.4075H283.691C277.281 115.988 256.129 131.585 228.993 131.585C196.302 131.585 173.013 108.082 173.013 75.605C173.013 43.7688 196.73 20.052 229.207 20.052C260.616 20.052 286.469 42.4868 284.973 82.6559H201.644C202.926 95.2622 212.327 106.159 230.489 106.159C240.745 106.159 249.719 101.672 253.137 94.4075ZM228.352 43.7688C238.394 43.7688 249.291 49.1105 252.924 63.426H202.712C205.49 51.6745 214.891 43.7688 228.352 43.7688Z" fill="#02010A"/>
<path d="M1.67664 129.235H30.9488V77.1006C30.9488 56.5888 39.7091 46.7602 52.3153 46.7602C63.8532 46.7602 68.9812 56.3751 68.9812 72.1863V129.235H98.2533V77.1006C98.2533 56.5888 107.014 46.7602 119.62 46.7602C131.158 46.7602 136.286 56.3751 136.286 72.1863V129.235H165.558V67.272C165.558 38.4272 151.029 20.052 125.602 20.052C113.424 20.052 99.108 26.462 92.4844 39.7092C86.0744 27.3166 74.9638 20.052 59.3663 20.052C46.3327 20.052 36.7177 26.2483 30.9488 34.5812V22.4023H1.67664V129.235Z" fill="#02010A"/>
</svg>