<svg width="141" height="111" viewBox="0 0 141 111" fill="none" xmlns="http://www.w3.org/2000/svg">
<path d="M66.2 0.952994C71.869 -0.406006 78.204 1.13098 82.435 5.18398C101.333 24.077 120.215 42.982 139.119 61.868C140.454 63.045 140.264 65.437 138.791 66.416C133.141 70.257 125.25 70.365 119.471 66.731C117.266 65.416 115.56 63.469 113.751 61.689C101.081 49.02 88.413 36.351 75.74 23.686C73.677 21.67 70.435 20.985 67.738 22.014C65.878 22.633 64.538 24.13 63.201 25.478C50.185 38.499 37.173 51.521 24.157 64.541C19.049 69.546 10.813 70.808 4.368 67.788C3.41 67.33 2.426 66.863 1.623 66.152C0.435004 65.039 0.441004 62.944 1.623 61.823C20.114 43.311 38.637 24.826 57.135 6.31698C59.57 3.71798 62.719 1.76999 66.2 0.952994Z" fill="url(#paint0_linear_1_18)"/>
<path d="M68.794 36.163C70.613 35.514 72.732 36.086 74.045 37.482C88.571 52.003 103.086 66.533 117.616 81.053C118.261 81.725 119.037 82.331 119.433 83.198C119.962 84.44 119.539 86.011 118.431 86.792C111.696 91.454 101.455 90.767 95.896 84.554C88.785 77.44 81.666 70.331 74.556 63.213C73.688 62.369 72.887 61.376 71.738 60.912C70.332 60.394 68.635 60.747 67.613 61.86C60.048 69.436 52.476 77.002 44.915 84.581C39.258 90.801 28.895 91.521 22.153 86.67C20.829 85.6 20.714 83.34 22.012 82.203C36.989 67.24 51.96 52.27 66.934 37.307C67.462 36.796 68.089 36.383 68.794 36.163Z" fill="url(#paint1_linear_1_18)"/>
<path d="M68.869 75.896C69.994 75.216 71.576 75.394 72.487 76.359C80.847 84.715 89.201 93.085 97.566 101.438C98.282 102.195 99.26 102.885 99.4 103.999C99.595 105.098 99.201 106.307 98.28 106.972C92.02 111.326 82.89 111.047 77.021 106.122C75.014 104.208 73.125 102.163 71.101 100.268C70.655 99.763 69.875 99.928 69.477 100.398C68.037 101.765 66.671 103.211 65.255 104.599C59.657 111.015 49.133 111.762 42.332 106.856C41.166 105.895 40.931 103.981 41.874 102.786C42.477 102.026 43.214 101.387 43.891 100.697C51.907 92.681 59.93 84.671 67.943 76.652C68.229 76.377 68.529 76.104 68.869 75.896Z" fill="url(#paint2_linear_1_18)"/>
<defs>
<linearGradient id="paint0_linear_1_18" x1="70.375" y1="105.858" x2="70.375" y2="4.38309" gradientUnits="userSpaceOnUse">
<stop stop-color="#817930"/>
<stop offset="1" stop-color="#56E8AC"/>
</linearGradient>
<linearGradient id="paint1_linear_1_18" x1="70.3779" y1="105.858" x2="70.3779" y2="4.383" gradientUnits="userSpaceOnUse">
<stop stop-color="#817930"/>
<stop offset="1" stop-color="#56E8AC"/>
</linearGradient>
<linearGradient id="paint2_linear_1_18" x1="70.3701" y1="105.859" x2="70.3701" y2="4.38132" gradientUnits="userSpaceOnUse">
<stop stop-color="#817930"/>
<stop offset="1" stop-color="#56E8AC"/>
</linearGradient>
</defs>
</svg>
