<svg width="590" height="581" viewBox="0 0 590 581" fill="none" xmlns="http://www.w3.org/2000/svg">
<path d="M281.194 0.188324V230.712C281.194 240.213 269.735 245.036 262.954 238.364L154.89 132.186L200.183 13.932C203.337 5.66403 211.279 0.188324 220.164 0.188324H281.158H281.194Z" fill="#9A9350"/>
<path d="M281.192 314.08V443.575C281.192 452.133 270.93 456.557 264.729 450.682L97.2664 292.104L146.403 163.878L268.573 283.909C276.659 291.851 281.228 302.729 281.228 314.044L281.192 314.08Z" fill="#9A9350"/>
<path d="M281.192 522.898V580.955H21.5126C6.49973 580.955 -3.83522 565.906 1.5317 551.909L88.7442 324.431L269.298 495.375C276.877 502.555 281.156 512.491 281.156 522.934L281.192 522.898Z" fill="#9A9350"/>
<path d="M308.901 0.188324V230.712C308.901 240.213 320.36 245.036 327.141 238.364L435.205 132.186L389.913 13.932C386.758 5.66403 378.816 0.188324 369.932 0.188324H308.937H308.901Z" fill="#9A9350"/>
<path d="M308.903 314.08V443.575C308.903 452.133 319.165 456.557 325.366 450.682L492.829 292.104L443.692 163.879L321.522 283.909C313.436 291.851 308.866 302.729 308.866 314.044L308.903 314.08Z" fill="#9A9350"/>
<path d="M308.903 522.898V580.955H568.583C583.595 580.955 593.93 565.906 588.564 551.909L501.351 324.431L320.798 495.375C313.219 502.555 308.94 512.491 308.94 522.934L308.903 522.898Z" fill="#9A9350"/>
</svg>
