<svg width="155" height="206" viewBox="0 0 155 206" fill="none" xmlns="http://www.w3.org/2000/svg">
<mask id="mask0_1_136" style="mask-type:alpha" maskUnits="userSpaceOnUse" x="0" y="1" width="155" height="204">
<path d="M1.81401 96.1105L75.7451 2.32276C76.6785 1.1386 78.4735 1.13863 79.407 2.32282L153.338 96.1176C154.412 97.4798 154.453 99.3887 153.438 100.796L79.4671 203.378C78.5366 204.668 76.6155 204.668 75.6851 203.377L1.71378 100.789C0.699324 99.3816 0.740223 97.4727 1.81401 96.1105Z" fill="#D9D9D9"/>
</mask>
<g mask="url(#mask0_1_136)">
<path d="M0 98.4304L77.5758 0L48.675 111.233L0 98.4304Z" fill="url(#paint0_linear_1_136)"/>
<path d="M77.577 0L155.153 98.4304L106.478 111.233L77.577 0Z" fill="url(#paint1_linear_1_136)"/>
<path d="M77.5767 0L106.477 111.233H48.6759L77.5767 0Z" fill="url(#paint2_linear_1_136)"/>
<path d="M155.157 98.3989L77.5808 205.986L106.482 111.202L155.157 98.3989Z" fill="url(#paint3_linear_1_136)"/>
<path d="M77.5837 205.986L0.00789054 98.3989L48.6829 111.202L77.5837 205.986Z" fill="url(#paint4_linear_1_136)"/>
<path d="M77.5794 205.986L48.6786 111.202L106.48 111.202L77.5794 205.986Z" fill="url(#paint5_linear_1_136)"/>
</g>
<defs>
<linearGradient id="paint0_linear_1_136" x1="38.7879" y1="0" x2="38.7879" y2="107.587" gradientUnits="userSpaceOnUse">
<stop stop-color="#FE5873"/>
<stop offset="0.739583" stop-color="#FF7A8F"/>
<stop offset="1" stop-color="#FF8B9F"/>
</linearGradient>
<linearGradient id="paint1_linear_1_136" x1="116.365" y1="0" x2="116.365" y2="107.587" gradientUnits="userSpaceOnUse">
<stop stop-color="#FE5873"/>
<stop offset="0.739583" stop-color="#FF7A8F"/>
<stop offset="1" stop-color="#FF8B9F"/>
</linearGradient>
<linearGradient id="paint2_linear_1_136" x1="77.5767" y1="0" x2="77.5767" y2="107.587" gradientUnits="userSpaceOnUse">
<stop stop-color="#FF677F"/>
<stop offset="0.635417" stop-color="#FF93A6"/>
<stop offset="1" stop-color="#FFA2B3"/>
</linearGradient>
<linearGradient id="paint3_linear_1_136" x1="116.369" y1="205.986" x2="116.369" y2="98.3989" gradientUnits="userSpaceOnUse">
<stop stop-color="#C11738"/>
<stop offset="1" stop-color="#F9415E"/>
</linearGradient>
<linearGradient id="paint4_linear_1_136" x1="38.7958" y1="205.986" x2="38.7958" y2="98.3989" gradientUnits="userSpaceOnUse">
<stop stop-color="#C11738"/>
<stop offset="1" stop-color="#F9415E"/>
</linearGradient>
<linearGradient id="paint5_linear_1_136" x1="77.5794" y1="205.986" x2="77.5794" y2="107.555" gradientUnits="userSpaceOnUse">
<stop stop-color="#EB2347"/>
<stop offset="1" stop-color="#FE647C"/>
</linearGradient>
</defs>
</svg>
