<svg width="178" height="50" viewBox="0 0 178 50" fill="none" xmlns="http://www.w3.org/2000/svg">
<path fill-rule="evenodd" clip-rule="evenodd" d="M102.832 33.0176C101.853 32.6165 101.071 32.0227 100.485 31.2364C99.8996 30.4501 99.5907 29.5033 99.5586 28.396H103.939C104.004 29.0219 104.22 29.4993 104.589 29.8283C104.958 30.1572 105.44 30.3217 106.034 30.3217C106.643 30.3217 107.125 30.1813 107.478 29.9005C107.831 29.6196 108.007 29.2305 108.007 28.733C108.007 28.3158 107.867 27.9708 107.586 27.698C107.305 27.4252 106.96 27.2005 106.551 27.024C106.142 26.8475 105.56 26.6469 104.806 26.4222C103.715 26.0852 102.824 25.7483 102.134 25.4113C101.444 25.0743 100.85 24.5768 100.353 23.9189C99.8555 23.2609 99.6067 22.4024 99.6067 21.3433C99.6067 19.7707 100.176 18.5391 101.316 17.6484C102.455 16.7578 103.939 16.3125 105.769 16.3125C107.63 16.3125 109.131 16.7578 110.27 17.6484C111.409 18.5391 112.019 19.7787 112.099 21.3674H107.646C107.614 20.8218 107.414 20.3925 107.045 20.0796C106.676 19.7667 106.202 19.6102 105.624 19.6102C105.127 19.6102 104.726 19.7426 104.421 20.0074C104.116 20.2721 103.964 20.6533 103.964 21.1507C103.964 21.6963 104.22 22.1216 104.734 22.4265C105.247 22.7314 106.05 23.0603 107.141 23.4134C108.232 23.7825 109.119 24.1355 109.801 24.4725C110.483 24.8095 111.072 25.2989 111.57 25.9408C112.067 26.5827 112.316 27.4091 112.316 28.4201C112.316 29.3829 112.071 30.2575 111.582 31.0438C111.092 31.8301 110.382 32.456 109.452 32.9213C108.521 33.3867 107.422 33.6194 106.154 33.6194C104.918 33.6194 103.811 33.4188 102.832 33.0176ZM122.329 29.961V33.4512H120.235C118.743 33.4512 117.579 33.0862 116.745 32.356C115.91 31.6258 115.493 30.4344 115.493 28.7815V23.4378H113.856V20.0197H115.493V16.7461H119.609V20.0197H122.305V23.4378H119.609V28.8296C119.609 29.2308 119.706 29.5197 119.898 29.6962C120.091 29.8727 120.412 29.961 120.861 29.961H122.329ZM127.18 32.8023C126.129 32.2406 125.302 31.4383 124.701 30.3952C124.099 29.3521 123.798 28.1326 123.798 26.7364C123.798 25.3564 124.103 24.1408 124.713 23.0897C125.322 22.0386 126.157 21.2323 127.216 20.6706C128.275 20.1089 129.462 19.8281 130.778 19.8281C132.094 19.8281 133.282 20.1089 134.341 20.6706C135.4 21.2323 136.234 22.0386 136.844 23.0897C137.454 24.1408 137.759 25.3564 137.759 26.7364C137.759 28.1165 137.45 29.3321 136.832 30.3832C136.214 31.4343 135.372 32.2406 134.305 32.8023C133.238 33.3639 132.046 33.6448 130.73 33.6448C129.414 33.6448 128.231 33.3639 127.18 32.8023ZM132.74 29.2158C133.294 28.6381 133.571 27.8116 133.571 26.7365C133.571 25.6613 133.302 24.8349 132.764 24.2572C132.227 23.6795 131.565 23.3906 130.779 23.3906C129.976 23.3906 129.31 23.6755 128.781 24.2451C128.251 24.8148 127.986 25.6453 127.986 26.7365C127.986 27.8116 128.247 28.6381 128.769 29.2158C129.29 29.7935 129.944 30.0823 130.73 30.0823C131.517 30.0823 132.187 29.7935 132.74 29.2158ZM151.9 21.4035C152.839 22.4225 153.308 23.8226 153.308 25.6038V33.4509H149.216V26.1575C149.216 25.2588 148.984 24.5608 148.518 24.0633C148.053 23.5659 147.427 23.3171 146.641 23.3171C145.855 23.3171 145.229 23.5659 144.763 24.0633C144.298 24.5608 144.065 25.2588 144.065 26.1575V33.4509H139.949V20.0194H144.065V21.8007C144.483 21.2069 145.044 20.7375 145.75 20.3925C146.456 20.0475 147.251 19.875 148.133 19.875C149.706 19.875 150.962 20.3845 151.9 21.4035ZM168.763 27.7233H159.447C159.512 28.5578 159.78 29.1957 160.254 29.637C160.727 30.0783 161.309 30.2989 161.999 30.2989C163.026 30.2989 163.74 29.8657 164.141 28.9991H168.522C168.297 29.8817 167.892 30.676 167.307 31.3821C166.721 32.0882 165.987 32.6418 165.104 33.043C164.222 33.4442 163.235 33.6448 162.143 33.6448C160.828 33.6448 159.656 33.3639 158.629 32.8023C157.602 32.2406 156.8 31.4383 156.222 30.3952C155.644 29.3521 155.355 28.1326 155.355 26.7364C155.355 25.3403 155.64 24.1208 156.21 23.0777C156.78 22.0346 157.578 21.2323 158.605 20.6706C159.632 20.1089 160.811 19.8281 162.143 19.8281C163.443 19.8281 164.599 20.1009 165.61 20.6465C166.621 21.1921 167.411 21.9704 167.981 22.9814C168.55 23.9924 168.835 25.1718 168.835 26.5198C168.835 26.9049 168.811 27.3061 168.763 27.7233ZM164.622 25.4319C164.622 24.7258 164.381 24.1642 163.9 23.7469C163.418 23.3297 162.817 23.1211 162.094 23.1211C161.404 23.1211 160.823 23.3217 160.349 23.7229C159.876 24.124 159.583 24.6937 159.471 25.4319H164.622Z" fill="#A7A8AC"/>
<path fill-rule="evenodd" clip-rule="evenodd" d="M58.2768 27.0736L61.7911 33.4524H66.4368L62.5373 26.7607C63.773 26.3916 64.7077 25.7658 65.3416 24.8832C65.9754 24.0006 66.2924 22.9976 66.2924 21.8743C66.2924 20.8794 66.0597 19.9768 65.5943 19.1664C65.129 18.356 64.4269 17.7181 63.4881 17.2527C62.5494 16.7874 61.414 16.5547 60.0821 16.5547H53.1738V33.4524H57.2899V27.0736H58.2768ZM59.8415 24.161H57.29V19.9727H59.8415C60.5958 19.9727 61.1614 20.1572 61.5385 20.5263C61.9156 20.8954 62.1042 21.4009 62.1042 22.0427C62.1042 22.7167 61.9156 23.2383 61.5385 23.6073C61.1614 23.9764 60.5958 24.161 59.8415 24.161Z" fill="#FD627A"/>
<path fill-rule="evenodd" clip-rule="evenodd" d="M72.1409 27.7194H81.4562C81.5044 27.3022 81.5284 26.901 81.5284 26.5159C81.5284 25.1679 81.2436 23.9885 80.6739 22.9775C80.1042 21.9665 79.3139 21.1882 78.303 20.6426C77.292 20.097 76.1366 19.8242 74.8368 19.8242C73.5049 19.8242 72.3254 20.105 71.2984 20.6667C70.2714 21.2284 69.473 22.0307 68.9033 23.0738C68.3337 24.1168 68.0488 25.3364 68.0488 26.7325C68.0488 28.1286 68.3377 29.3482 68.9154 30.3913C69.4931 31.4344 70.2954 32.2367 71.3224 32.7984C72.3495 33.36 73.5209 33.6409 74.8368 33.6409C75.928 33.6409 76.9149 33.4403 77.7975 33.0391C78.6801 32.6379 79.4142 32.0843 79.9999 31.3782C80.5857 30.6721 80.9909 29.8778 81.2155 28.9952H76.8346C76.4335 29.8617 75.7194 30.295 74.6923 30.295C74.0023 30.295 73.4206 30.0744 72.9472 29.6331C72.4738 29.1918 72.205 28.5539 72.1409 27.7194ZM76.5941 23.7469C77.0755 24.1642 77.3162 24.7258 77.3162 25.4319H72.165C72.2774 24.6937 72.5702 24.124 73.0436 23.7229C73.517 23.3217 74.0987 23.1211 74.7887 23.1211C75.5109 23.1211 76.1126 23.3297 76.5941 23.7469Z" fill="#FD627A"/>
<path fill-rule="evenodd" clip-rule="evenodd" d="M85.7876 20.6636C84.8889 21.2253 84.1788 22.0276 83.6573 23.0707C83.1358 24.1138 82.875 25.3253 82.875 26.7054C82.875 28.0854 83.1358 29.301 83.6573 30.3521C84.1788 31.4032 84.8889 32.2136 85.7876 32.7833C86.6862 33.3529 87.6891 33.6378 88.7964 33.6378C89.7432 33.6378 90.5736 33.4452 91.2877 33.0601C92.0018 32.6749 92.5514 32.1614 92.9366 31.5195V33.4452H97.0527V15.6328H92.9366V21.8671C92.5193 21.2413 91.9457 20.7438 91.2155 20.3748C90.4854 20.0057 89.679 19.8211 88.7964 19.8211C87.6891 19.8211 86.6862 20.102 85.7876 20.6636ZM90.0001 23.4062C90.8185 23.4062 91.5125 23.7031 92.0822 24.2969C92.6519 24.8906 92.9367 25.701 92.9367 26.728C92.9367 27.755 92.6519 28.5654 92.0822 29.1592C91.5125 29.7529 90.8185 30.0498 90.0001 30.0498C89.1817 30.0498 88.4877 29.7489 87.918 29.1471C87.3483 28.5454 87.0635 27.731 87.0635 26.7039C87.0635 25.6769 87.3483 24.8706 87.918 24.2848C88.4877 23.6991 89.1817 23.4062 90.0001 23.4062Z" fill="#FD627A"/>
<path fill-rule="evenodd" clip-rule="evenodd" d="M36.5395 24.4483L32.1436 17.2125L34.4205 13.5039L41.0694 24.4483H36.5395ZM21.5761 34.6211H30.4635L32.6821 38.2407H19.3975L21.5761 34.6211ZM30.4597 16.2296H21.5648L19.3906 12.6016H32.687L30.4597 16.2296ZM30.4536 32.6661H21.5629L17.1611 25.421L21.5629 18.1758H30.4536L34.8552 25.421L30.4536 32.6661ZM17.6652 13.5117L19.8782 17.2045L15.4786 24.4461H11.0225L17.6652 13.5117ZM11.0195 26.3945H15.4705L19.8825 33.6567L17.6674 37.3371L11.0195 26.3945ZM34.4179 37.3424L32.1455 33.635L36.5443 26.3945H41.0689L34.4179 37.3424ZM35.2544 11.1243C35.0779 10.8337 34.7625 10.6562 34.4225 10.6562H17.668C17.3279 10.6562 17.0125 10.8337 16.8361 11.1243L8.45893 24.9136C8.27026 25.2241 8.27017 25.6139 8.45884 25.9244L16.8361 39.7137C17.0125 40.0044 17.3279 40.1818 17.668 40.1818H34.4225C34.7625 40.1818 35.0779 40.0044 35.2544 39.7137L43.6317 25.9244C43.8204 25.6139 43.8204 25.2241 43.6317 24.9136L35.2544 11.1243Z" fill="#FD627A"/>
<path fill-rule="evenodd" clip-rule="evenodd" d="M31.0474 26.9363C30.5934 26.6488 29.9919 26.7836 29.7042 27.2378L27.9812 29.9581C27.6936 30.4122 27.8286 31.0137 28.2827 31.3014C28.4443 31.4037 28.6246 31.4525 28.8027 31.4525C29.1251 31.4525 29.4407 31.2924 29.626 30.9998L31.3489 28.2796C31.6366 27.8254 31.5016 27.224 31.0474 26.9363Z" fill="#FD627A"/>
<path fill-rule="evenodd" clip-rule="evenodd" d="M32.465 24.4353C32.0018 24.1628 31.4049 24.3174 31.1324 24.7808L31.0056 24.9963C30.7331 25.4597 30.8878 26.0563 31.3512 26.3289C31.5062 26.4201 31.6761 26.4635 31.8438 26.4635C32.1774 26.4635 32.5024 26.2918 32.6838 25.9834L32.8105 25.768C33.0831 25.3045 32.9284 24.708 32.465 24.4353Z" fill="#FD627A"/>
</svg>
