<svg width="180" height="180" viewBox="0 0 180 180" fill="none" xmlns="http://www.w3.org/2000/svg">
<path fill-rule="evenodd" clip-rule="evenodd" d="M31 143.458C31 138.718 34.8367 132 39.5694 132H139.431C144.163 132 148 138.718 148 143.458V148H31V143.458ZM39.5694 135.696C36.875 135.696 34.6907 140.759 34.6907 143.458V144.304H144.309V143.458C144.309 140.759 142.125 135.696 139.431 135.696H39.5694Z" fill="#FD627A" stroke="#FD627A" stroke-width="0.5" stroke-linejoin="round"/>
<path fill-rule="evenodd" clip-rule="evenodd" d="M87.2979 29.7962C88.574 28.7346 90.426 28.7346 91.7021 29.7962L150.752 78.9208C153.229 80.9814 151.772 85.0112 148.55 85.0112H30.4502C27.2283 85.0112 25.7711 80.9814 28.248 78.9208L87.2979 29.7962ZM89.5 32.5076L30.587 81.5184H148.413L89.5 32.5076Z" fill="#FD627A" stroke="#FD627A" stroke-width="1.08843"/>
<path fill-rule="evenodd" clip-rule="evenodd" d="M45.5425 92.1722C45.5425 90.2705 47.0841 88.7289 48.9858 88.7289H63.4096C65.3113 88.7289 66.8529 90.2705 66.8529 92.1722V124.323C66.8529 126.225 65.3113 127.766 63.4096 127.766H48.9858C47.0841 127.766 45.5425 126.225 45.5425 124.323V92.1722ZM49.0352 92.2216V124.273H63.3602V92.2216H49.0352Z" fill="#FD627A" stroke="#FD627A" stroke-width="0.761898"/>
<path fill-rule="evenodd" clip-rule="evenodd" d="M42.9976 84.9608C42.9976 83.0591 44.5392 81.5175 46.4409 81.5175H65.9555C67.8572 81.5175 69.3988 83.0591 69.3988 84.9608V88.7788C69.3988 90.6805 67.8572 92.2221 65.9555 92.2221H46.4409C44.5392 92.2221 42.9976 90.6805 42.9976 88.7788V84.9608ZM46.4903 85.0102V88.7294H65.906V85.0102H46.4903Z" fill="#FD627A" stroke="#FD627A" stroke-width="0.761898"/>
<path fill-rule="evenodd" clip-rule="evenodd" d="M42.9976 127.718C42.9976 125.816 44.5392 124.275 46.4409 124.275H65.9555C67.8572 124.275 69.3988 125.816 69.3988 127.718V131.536C69.3988 133.438 67.8572 134.979 65.9555 134.979H46.4409C44.5392 134.979 42.9976 133.438 42.9976 131.536V127.718ZM46.4903 127.767V131.486H65.906V127.767H46.4903Z" fill="#FD627A" stroke="#FD627A" stroke-width="0.761898"/>
<path fill-rule="evenodd" clip-rule="evenodd" d="M79.481 92.1721C79.481 90.2704 81.0226 88.7288 82.9243 88.7288H97.3481C99.2498 88.7288 100.791 90.2704 100.791 92.1721V124.323C100.791 126.225 99.2498 127.766 97.3481 127.766H82.9243C81.0226 127.766 79.481 126.225 79.481 124.323V92.1721ZM82.9737 92.2215V124.273H97.2986V92.2215H82.9737Z" fill="#FD627A" stroke="#FD627A" stroke-width="0.761898"/>
<path fill-rule="evenodd" clip-rule="evenodd" d="M76.9355 84.9608C76.9355 83.0591 78.4772 81.5175 80.3789 81.5175H99.8935C101.795 81.5175 103.337 83.0591 103.337 84.9608V88.7788C103.337 90.6805 101.795 92.2221 99.8935 92.2221H80.3789C78.4772 92.2221 76.9355 90.6805 76.9355 88.7788V84.9608ZM80.4283 85.0102V88.7294H99.844V85.0102H80.4283Z" fill="#FD627A" stroke="#FD627A" stroke-width="0.761898"/>
<path fill-rule="evenodd" clip-rule="evenodd" d="M76.9355 127.718C76.9355 125.816 78.4772 124.274 80.3789 124.274H99.8935C101.795 124.274 103.337 125.816 103.337 127.718V131.536C103.337 133.437 101.795 134.979 99.8935 134.979H80.3789C78.4772 134.979 76.9355 133.437 76.9355 131.536V127.718ZM80.4283 127.767V131.486H99.844V127.767H80.4283Z" fill="#FD627A" stroke="#FD627A" stroke-width="0.761898"/>
<path fill-rule="evenodd" clip-rule="evenodd" d="M113.419 92.1722C113.419 90.2705 114.961 88.7289 116.862 88.7289H131.286C133.188 88.7289 134.729 90.2705 134.729 92.1722V124.323C134.729 126.225 133.188 127.766 131.286 127.766H116.862C114.961 127.766 113.419 126.225 113.419 124.323V92.1722ZM116.912 92.2216V124.273H131.237V92.2216H116.912Z" fill="#FD627A" stroke="#FD627A" stroke-width="0.761898"/>
<path fill-rule="evenodd" clip-rule="evenodd" d="M110.874 84.9608C110.874 83.0591 112.416 81.5175 114.317 81.5175H133.832C135.734 81.5175 137.275 83.0591 137.275 84.9608V88.7788C137.275 90.6805 135.734 92.2221 133.832 92.2221H114.317C112.416 92.2221 110.874 90.6805 110.874 88.7788V84.9608ZM114.367 85.0102V88.7294H133.782V85.0102H114.367Z" fill="#FD627A" stroke="#FD627A" stroke-width="0.761898"/>
<path fill-rule="evenodd" clip-rule="evenodd" d="M110.874 127.718C110.874 125.816 112.416 124.275 114.317 124.275H133.832C135.734 124.275 137.275 125.816 137.275 127.718V131.536C137.275 133.438 135.734 134.979 133.832 134.979H114.317C112.416 134.979 110.874 133.438 110.874 131.536V127.718ZM114.367 127.767V131.486H133.782V127.767H114.367Z" fill="#FD627A" stroke="#FD627A" stroke-width="0.761898"/>
</svg>
