<?xml version="1.0" encoding="UTF-8" standalone="no"?>
<svg width="143px" height="129px" viewBox="0 0 143 129" version="1.1" xmlns="http://www.w3.org/2000/svg" xmlns:xlink="http://www.w3.org/1999/xlink">
    <!-- Generator: Sketch 50.2 (55047) - http://www.bohemiancoding.com/sketch -->
    <title>Cost-efficient</title>
    <desc>Created with Sketch.</desc>
    <defs></defs>
    <g id="Page-1" stroke="none" stroke-width="1" fill="none" fill-rule="evenodd">
        <g id="Propozycje-ikon" transform="translate(-445.000000, -278.000000)">
            <g id="Cost-efficient" transform="translate(448.000000, 281.000000)">
                <g id="Group" transform="translate(0.000000, 33.000000)">
                    <g id="piggybank-copy" fill-rule="nonzero">
                        <path d="M99.8325303,12.1468074 C90.4027793,5.5371119 64.3123322,-8.64709012 31.2857939,7.46257125 C25.5532767,5.42165431 15.4670911,0.729908021 10.1723663,5.5371119 C8.57699829,6.9853362 15.5037896,15.6157335 17.5278795,20.0620788 C14.6621047,22.6097447 12.5038607,26.0156528 11.0531475,30.2798031 C6.31398269,37.2105908 -0.944809858,32.2539337 0.276047607,41.7861704 L0.920529801,48.0260667 C1.65713289,54.7153449 6.72138049,58.2758983 16.1132726,58.707727 C18.8984205,62.9355916 23.1375012,68.072221 27.2803337,71.16368 L30.0419231,86.2878735 C30.0419231,88.3379572 31.8725214,90 34.1305137,90 L46.8155557,90 C49.073548,90 50.9041463,88.3379572 50.9041463,86.2878735 L50.9041463,79.6842381 C55.0085461,80.431118 58.3426036,80.8191589 62.5219609,80.8191589 C66.6326298,80.8191589 70.9956253,80.4420069 75.0433299,79.6948795 L75.0433299,86.2878735 C75.0433299,88.3379572 76.8739282,90 79.1319205,90 L91.5613652,90 C93.8193574,90 95.6499557,88.3379572 95.6499557,86.2878735 L99.3192759,71.16368 C109.596085,63.5313004 115.673638,52.4780724 115.673638,41.2474047 C115.673638,39.8900038 115.587505,38.5432443 115.419328,37.2105908 C113.14402,26.6716609 106.697499,16.9587424 99.8325303,12.1468074 Z" id="Shape" stroke="#FD627A" stroke-width="5" stroke-linecap="round" stroke-linejoin="round"></path>
                        <ellipse id="Oval" fill="#FD627A" cx="26.1416356" cy="32.824369" rx="4.04892035" ry="3.77978297"></ellipse>
                    </g>
                    <path d="M116.79823,33.0743883 C121.360829,32.5168275 125.192854,28.5648152 128.294303,21.2183514 C130.91183,15.0181633 126.428805,9.8500972 121.301705,10.5537022 C116.174604,11.2573072 113.599657,18.2011188 119.481467,23.4599817 C124.189331,27.6692321 133.03029,26.2555634 136.692998,21.6210624" id="Path-2" stroke="#FD627A" stroke-width="5" stroke-linecap="round" stroke-linejoin="round" transform="translate(126.398591, 21.781887) rotate(11.000000) translate(-126.398591, -21.781887) "></path>
                </g>
                <path d="M51,47 C58.6666667,44.3333333 66.3333333,44.3333333 74,47" id="Line-6" stroke="#FD627A" stroke-width="5" stroke-linecap="round"></path>
                <circle id="Oval-6" stroke="#FD627A" stroke-width="5" cx="63.5" cy="12.5" r="12.5"></circle>
            </g>
        </g>
    </g>
</svg>