<svg width="180" height="180" viewBox="0 0 180 180" fill="none" xmlns="http://www.w3.org/2000/svg">
<path d="M90.3959 143.646C101.11 143.646 111.384 139.39 118.96 131.814C126.536 124.239 130.792 113.964 130.792 103.25C130.792 91.7084 123.931 81.9619 113.479 71.5105C101.938 59.9688 93.2813 48.4271 90.3959 34C87.5105 48.4271 78.8542 59.9688 67.3125 71.5105C56.8611 81.9619 50 91.7084 50 103.25C50 113.964 54.256 124.239 61.8317 131.814C69.4074 139.39 79.6823 143.646 90.3959 143.646Z" stroke="#FD627A" stroke-width="5.2" stroke-linecap="round" stroke-linejoin="round"/>
<path d="M112.508 107.119C111.19 111.538 108.79 115.605 105.47 118.925C102.658 121.737 99.3094 123.889 95.665 125.283" stroke="#FD627A" stroke-width="5" stroke-linecap="round" stroke-linejoin="round"/>
</svg>
