<svg width="180" height="180" viewBox="0 0 180 180" fill="none" xmlns="http://www.w3.org/2000/svg">
<circle cx="89.5003" cy="89.4999" r="17.3182" stroke="#FD627A" stroke-width="5" stroke-linecap="round" stroke-linejoin="round"/>
<path d="M89.5 26.6791L89.5 61.3154" stroke="#FD627A" stroke-width="5" stroke-linecap="round" stroke-linejoin="round"/>
<path d="M98.6684 36.1872L89.5 26L80.3315 36.1872" stroke="#FD627A" stroke-width="4.6" stroke-linecap="round" stroke-linejoin="round"/>
<path d="M26.6792 88.8208L61.3156 88.8208" stroke="#FD627A" stroke-width="5" stroke-linecap="round" stroke-linejoin="round"/>
<path d="M36.1872 79.6525L26 88.8209L36.1872 97.9894" stroke="#FD627A" stroke-width="4.6" stroke-linecap="round" stroke-linejoin="round"/>
<path d="M89.5 152.321L89.5 117.684" stroke="#FD627A" stroke-width="5" stroke-linecap="round" stroke-linejoin="round"/>
<path d="M80.3316 142.813L89.5 153L98.6685 142.813" stroke="#FD627A" stroke-width="4.6" stroke-linecap="round" stroke-linejoin="round"/>
<path d="M152.321 88.8208L117.684 88.8208" stroke="#FD627A" stroke-width="5" stroke-linecap="round" stroke-linejoin="round"/>
<path d="M142.813 97.9894L153 88.8209L142.813 79.6525" stroke="#FD627A" stroke-width="4.6" stroke-linecap="round" stroke-linejoin="round"/>
<path d="M45.0786 44.3998L69.5702 68.8914" stroke="#FD627A" stroke-width="5" stroke-linecap="round" stroke-linejoin="round"/>
<path d="M58.2853 44.6399L44.5988 43.9195L45.3191 57.606" stroke="#FD627A" stroke-width="4.6" stroke-linecap="round" stroke-linejoin="round"/>
<path d="M133.921 133.242L109.43 108.75" stroke="#FD627A" stroke-width="5" stroke-linecap="round" stroke-linejoin="round"/>
<path d="M120.715 133.002L134.401 133.722L133.681 120.036" stroke="#FD627A" stroke-width="4.6" stroke-linecap="round" stroke-linejoin="round"/>
<path d="M45.0791 133.242L69.5707 108.75" stroke="#FD627A" stroke-width="5" stroke-linecap="round" stroke-linejoin="round"/>
<path d="M45.3188 120.036L44.5985 133.722L58.285 133.002" stroke="#FD627A" stroke-width="4.6" stroke-linecap="round" stroke-linejoin="round"/>
<path d="M133.921 44.3998L109.429 68.8914" stroke="#FD627A" stroke-width="5" stroke-linecap="round" stroke-linejoin="round"/>
<path d="M133.681 57.6061L134.402 43.9196L120.715 44.6399" stroke="#FD627A" stroke-width="4.6" stroke-linecap="round" stroke-linejoin="round"/>
</svg>
