<?xml version="1.0" encoding="UTF-8" standalone="no"?>
<svg width="138px" height="129px" viewBox="0 0 138 129" version="1.1" xmlns="http://www.w3.org/2000/svg" xmlns:xlink="http://www.w3.org/1999/xlink">
    <!-- Generator: Sketch 50.2 (55047) - http://www.bohemiancoding.com/sketch -->
    <title>Fast</title>
    <desc>Created with Sketch.</desc>
    <defs></defs>
    <g id="Page-1" stroke="none" stroke-width="1" fill="none" fill-rule="evenodd">
        <g id="Propozycje-ikon" transform="translate(-146.000000, -281.000000)" stroke="#FD627A" stroke-width="5">
            <g id="Fast" transform="translate(149.000000, 283.000000)">
                <path d="M33.298361,101.842266 C43.3251201,115.290855 59.3557091,124 77.4204277,124 C107.796089,124 132.420428,99.3756612 132.420428,69 C132.420428,38.6243388 107.796089,14 77.4204277,14 C58.5544917,14 41.9071248,23.4988233 32,37.9747968" id="Oval" stroke-linecap="round"></path>
                <circle id="Oval-2" cx="77" cy="69" r="10"></circle>
                <path d="M81.0223563,59.2370209 L92.2042291,33.1464009" id="Line-2" stroke-linecap="round"></path>
                <path d="M9.44251217,69.5 L44.261226,69.5" id="Line-2-Copy" stroke-linecap="round"></path>
                <path d="M0.442512167,53.5 L35.261226,53.5" id="Line-2-Copy-3" stroke-linecap="round"></path>
                <path d="M0.442512167,85.5 L35.261226,85.5" id="Line-2-Copy-4" stroke-linecap="round"></path>
                <path d="M77.5,14.5 L77.5,22.5" id="Line-4" stroke-linecap="round"></path>
                <path d="M77.5,2.45463898 L77.5,13.5" id="Line-4-Copy-5" stroke-linecap="round"></path>
                <path d="M86.5071414,1 L69,1" id="Line-4-Copy-6" stroke-linecap="round"></path>
                <path d="M130.071068,69 L123,69" id="Line-4-Copy-2" stroke-linecap="round"></path>
                <path d="M115.226208,104.344125 L110,100" id="Line-4-Copy-3" stroke-linecap="round"></path>
                <path d="M113.822457,31 L109,36.1714516" id="Line-4-Copy-4" stroke-linecap="round"></path>
                <path d="M77.5,115.5 L77.5,123.571068" id="Line-4-Copy" stroke-linecap="round"></path>
            </g>
        </g>
    </g>
</svg>