<svg width="180" height="180" viewBox="0 0 180 180" fill="none" xmlns="http://www.w3.org/2000/svg">
<path d="M101.355 32.0779L103.84 31.8063C103.702 30.5383 102.631 29.5779 101.355 29.5779V32.0779ZM76.814 32.0779V29.5779C75.5626 29.5779 74.504 30.5031 74.3365 31.7431L76.814 32.0779ZM103 47.1344L100.515 47.4059C100.62 48.3668 101.27 49.1811 102.183 49.497L103 47.1344ZM118.732 56.7739L117.005 58.5816C117.696 59.2418 118.703 59.4503 119.6 59.1186L118.732 56.7739ZM133.479 51.3174L135.686 50.1437C135.099 49.0388 133.785 48.5385 132.611 48.9727L133.479 51.3174ZM145 72.986L146.407 75.0529C147.461 74.3352 147.807 72.9387 147.208 71.8124L145 72.986ZM132.057 81.7943L130.65 79.7275C129.837 80.2807 129.424 81.2593 129.595 82.2278L132.057 81.7943ZM131.853 99.1591L129.402 98.6673C129.205 99.6526 129.616 100.661 130.447 101.226L131.853 99.1591ZM144.773 107.951L146.981 109.125C147.579 107.999 147.234 106.602 146.18 105.884L144.773 107.951ZM133.252 129.62L132.384 131.964C133.558 132.399 134.872 131.898 135.459 130.793L133.252 129.62ZM117.849 123.921L118.717 121.576C117.843 121.253 116.863 121.442 116.172 122.067L117.849 123.921ZM102.98 132.747L102.164 130.383C101.272 130.692 100.629 131.476 100.503 132.412L102.98 132.747ZM101 147.402V149.902C102.251 149.902 103.31 148.977 103.478 147.737L101 147.402ZM76.4589 147.402L73.9737 147.674C74.1122 148.942 75.1832 149.902 76.4589 149.902V147.402ZM74.8368 132.557L77.322 132.285C77.2183 131.336 76.5829 130.529 75.6846 130.205L74.8368 132.557ZM60.6078 124.014L62.2793 122.154C61.5888 121.534 60.6111 121.347 59.7402 121.669L60.6078 124.014ZM45.5799 129.574L43.3725 130.748C43.96 131.853 45.2738 132.353 46.4474 131.919L45.5799 129.574ZM34.0584 107.905L32.6519 105.839C31.5974 106.556 31.2522 107.953 31.8511 109.079L34.0584 107.905ZM46.5506 99.4044L47.9571 101.471C48.792 100.903 49.203 99.8884 48.999 98.8993L46.5506 99.4044ZM46.3837 81.3183L48.8412 81.7775C49.0236 80.8015 48.6111 79.8101 47.7902 79.2515L46.3837 81.3183ZM34 72.8911L31.7926 71.7174C31.1938 72.8437 31.5389 74.2402 32.5935 74.9579L34 72.8911ZM45.5214 51.2224L46.389 48.8777C45.2154 48.4435 43.9015 48.9438 43.3141 50.0487L45.5214 51.2224ZM59.8757 56.5337L59.0081 58.8783C59.8979 59.2075 60.8973 59.0048 61.5884 58.3548L59.8757 56.5337ZM74.7508 47.3481L75.6036 49.6981C76.4779 49.3808 77.1037 48.6045 77.2282 47.6828L74.7508 47.3481ZM101.355 29.5779H76.814V34.5779H101.355V29.5779ZM105.486 46.8628L103.84 31.8063L98.87 32.3494L100.515 47.4059L105.486 46.8628ZM120.459 54.9663C115.73 50.4487 110.077 46.9368 103.818 44.7717L102.183 49.497C107.742 51.4196 112.779 54.5442 117.005 58.5816L120.459 54.9663ZM132.611 48.9727L117.864 54.4293L119.6 59.1186L134.346 53.662L132.611 48.9727ZM147.208 71.8124L135.686 50.1437L131.272 52.491L142.793 74.1597L147.208 71.8124ZM133.463 83.8611L146.407 75.0529L143.594 70.9192L130.65 79.7275L133.463 83.8611ZM135.265 89.937C135.265 87.011 135.009 84.1446 134.519 81.3608L129.595 82.2278C130.035 84.7264 130.265 87.3027 130.265 89.937H135.265ZM134.305 99.6509C134.934 96.5127 135.265 93.2633 135.265 89.937H130.265C130.265 92.9316 129.967 95.8514 129.402 98.6673L134.305 99.6509ZM146.18 105.884L133.26 97.0923L130.447 101.226L143.367 110.018L146.18 105.884ZM135.459 130.793L146.981 109.125L142.566 106.777L131.044 128.446L135.459 130.793ZM116.982 126.265L132.384 131.964L134.119 127.275L118.717 121.576L116.982 126.265ZM103.796 135.11C109.658 133.085 114.989 129.88 119.527 125.775L116.172 122.067C112.118 125.735 107.369 128.586 102.164 130.383L103.796 135.11ZM100.503 132.412L98.5227 147.068L103.478 147.737L105.458 133.081L100.503 132.412ZM101 144.902H76.4589V149.902H101V144.902ZM78.9441 147.131L77.322 132.285L72.3516 132.829L73.9737 147.674L78.9441 147.131ZM58.9363 125.873C63.303 129.799 68.3975 132.893 73.989 134.909L75.6846 130.205C70.7186 128.415 66.18 125.662 62.2793 122.154L58.9363 125.873ZM46.4474 131.919L61.4753 126.358L59.7402 121.669L44.7123 127.229L46.4474 131.919ZM31.8511 109.079L43.3725 130.748L47.7872 128.4L36.2658 106.732L31.8511 109.079ZM45.1441 97.3376L32.6519 105.839L35.4649 109.972L47.9571 101.471L45.1441 97.3376ZM43.0894 89.937C43.0894 93.3548 43.4382 96.6912 44.1021 99.9095L48.999 98.8993C48.4034 96.0119 48.0894 93.0139 48.0894 89.937H43.0894ZM43.9263 80.8591C43.3768 83.7997 43.0894 86.8349 43.0894 89.937H48.0894C48.0894 87.1442 48.3481 84.4165 48.8412 81.7775L43.9263 80.8591ZM32.5935 74.9579L44.9772 83.3852L47.7902 79.2515L35.4065 70.8242L32.5935 74.9579ZM43.3141 50.0487L31.7926 71.7174L36.2074 74.0647L47.7288 52.3961L43.3141 50.0487ZM60.7432 54.189L46.389 48.8777L44.6539 53.567L59.0081 58.8783L60.7432 54.189ZM73.8979 44.9981C68.0091 47.1353 62.674 50.47 58.1629 54.7125L61.5884 58.3548C65.6194 54.5637 70.3735 51.5963 75.6036 49.6981L73.8979 44.9981ZM74.3365 31.7431L72.2733 47.0133L77.2282 47.6828L79.2914 32.4126L74.3365 31.7431Z" fill="#FD627A"/>
<circle cx="89.4984" cy="90.5875" r="17.8074" stroke="#FD627A" stroke-width="5" stroke-linecap="round" stroke-linejoin="round"/>
</svg>
