<svg class="bi bi-github" xmlns="http://www.w3.org/2000/svg" width="32" height="32" fill="#ffffff" viewBox="0 0 1000 1000">
    <path d="M 500 0C 500 0 500 0 500 0C 776 0 1000 224 1000 500C 1000 720 857 908 659 974C 634 979 625 963 625 950C 625 933 626 879 626 813C 626 766 610 736 592 720C 703 708 820 665 820 473C 820 418 801 374 769 339C 774 327 791 275 764 207C 764 207 722 193 626 258C 586 247 544 241 501 241C 459 241 416 247 376 258C 281 194 239 207 239 207C 211 275 229 327 234 339C 202 374 183 419 183 473C 183 665 299 708 410 720C 396 733 383 755 378 787C 349 800 278 821 233 746C 223 731 195 694 156 695C 114 695 139 718 156 728C 178 740 202 784 208 798C 218 826 250 880 376 857C 376 899 376 938 376 950C 376 963 367 978 342 974C 143 908 0 721 0 500C 0 224 224 0 500 0"></path>
</svg>
