<?xml version="1.0" encoding="UTF-8" standalone="no"?>
<svg width="113px" height="115px" viewBox="0 0 113 115" version="1.1" xmlns="http://www.w3.org/2000/svg" xmlns:xlink="http://www.w3.org/1999/xlink">
    <!-- Generator: Sketch 50.2 (55047) - http://www.bohemiancoding.com/sketch -->
    <title>Insured</title>
    <desc>Created with Sketch.</desc>
    <defs></defs>
    <g id="Page-1" stroke="none" stroke-width="1" fill="none" fill-rule="evenodd">
        <g id="Propozycje-ikon" transform="translate(-738.000000, -628.000000)">
            <g id="Insured" transform="translate(738.000000, 628.000000)">
                <g id="Group-Copy-2" fill="#FD627A" fill-rule="nonzero">
                    <g id="Group">
                        <path d="M21.6237653,41.5277778 L3.68586908,41.5277778 C1.65028645,41.5277778 0,39.8774786 0,37.8418803 L0,12.7301068 C0,5.71068376 5.65903767,0 12.6152555,0 C14.6508382,0 18.2728318,6.5713802 17.5824954,5.94918951 C16.8921589,5.32699881 14.3456169,4.676769 12.3100342,4.676769 C6.9412925,4.676769 4.52299867,9.19010943 4.52299867,12.0945966 L4.52299867,37.0072226 L21.6237653,37.0072226 L21.6237653,41.5277778 Z" id="Shape"></path>
                        <path d="M98.5316353,115 L32.1157145,115 C30.0801319,115 28.4298454,113.349701 28.4298454,111.314103 C28.4298454,110.509271 24.8110554,110.80399 25.248829,110.197807 C25.9182822,109.270819 29.6221367,109.787035 30.9668013,109.787035 C35.525588,109.787035 38.5787631,105.45887 38.5787631,101.096795 L38.5787631,95.0961538 C38.5787631,93.0605556 40.2290495,91.4102564 42.2646322,91.4102564 L108.364551,91.4102564 C110.400134,91.4102564 112.05042,93.0605556 112.05042,95.0961538 L112.05042,101.485043 C112.05042,108.93719 105.985937,115 98.5316353,115 Z M39.7566583,110.479445 L98.5316353,110.479445 C102.390549,110.479445 107.527421,107.529252 107.527421,101.096795 L107.527421,95.9308116 L43.1017618,95.9308116 C43.1017618,98.7996225 43.1017618,100.951231 43.1017618,102.385636 C43.1017618,104.808413 42.1866183,106.811977 41.7257051,107.609503 C40.9750459,108.908382 40.7461599,109.573082 39.7566583,110.479445 Z" id="Shape"></path>
                    </g>
                    <g id="Group" transform="translate(8.546218, 0.000000)">
                        <path d="M83.1194604,85.0846486 C71.6003806,85.0846486 62.228814,75.6865421 62.228814,64.1346154 C62.228814,52.5826887 71.6003806,43.1845822 83.1194604,43.1845822 C94.6387601,43.1845822 104.010327,52.5826887 104.010327,64.1346154 C104.010327,75.6865421 94.6387601,85.0846486 83.1194604,85.0846486 Z M83.119448,48.2071154 C74.3540947,48.2071154 67.2228604,55.3521047 67.2228604,64.1346154 C67.2228604,72.9171261 74.3540947,80.0621154 83.119448,80.0621154 C91.8850459,80.0621154 99.0162803,72.9171261 99.0162803,64.1346154 C99.0162803,55.3521047 91.8850459,48.2071154 83.119448,48.2071154 Z" id="Shape"></path>
                        <rect id="Rectangle-path" x="85.4621849" y="83.4868056" width="4.505547" height="11.6093483"></rect>
                        <path d="M23.9143066,114.998034 C16.106143,114.945203 9.75357289,108.517735 9.75357289,100.670459 L9.75357289,9.87886717 C9.75357289,7.01492486 7.43469894,4.66356802 4.58440619,4.63727529 C2.57171555,4.6188458 0.808916603,4.91220395 0.808916603,2.88962916 C0.808916603,0.73706506 2.59201365,0 4.61791027,0 L76.5127849,0 C83.931861,0 89.9677319,6.06280983 89.9677319,13.5149573 L89.9677319,44.7824252 L85.4798105,44.7824252 L85.4798105,13.5149573 C85.4798105,7.9482004 79.8381127,4.5205552 76.5127849,4.5205552 L13.0446403,4.5205552 C13.8120551,6.14972187 14.2414943,7.96637785 14.2414943,9.87886717 L14.2414943,100.670459 C14.2414943,104.480203 17.8981278,109.845355 21.6884913,109.871156 L23.9143066,114.998034 Z" id="Shape"></path>
                        <path d="M81.5801036,59.5916147 C81.5801036,58.9196156 82.0914851,58.2017738 83.5270295,58.2017738 C84.9474378,58.2017738 86.2026471,58.8096798 87.3953663,59.5218728 L88.7240935,56.0358642 C87.634948,55.3078109 86.3568184,54.82896 85.0594444,54.6505858 L85.0594444,51.9393424 L81.5997804,51.9393424 L81.5997804,54.8669813 C79.0050324,55.5522334 77.4847263,57.4930571 77.4847263,59.9133834 C77.4847263,63.0202655 80.0029292,64.4277048 82.4822109,65.3923591 C84.5366027,66.2192677 84.9463566,66.9258118 84.9463566,67.7325148 C84.9463566,68.7562651 84.0174368,69.4441244 82.6430853,69.4441244 C81.0172595,69.4441244 79.5942564,68.7110741 78.2981798,67.7931316 L77.0206989,71.3330218 C78.3760222,72.2642174 79.6537194,72.8708199 81.3835514,73.0328992 L81.3835514,75.8384354 L84.8432154,75.8384354 L84.8432154,72.8319295 C87.8704214,72.029789 89.102278,69.6398797 89.102278,67.5445811 C89.102278,64.9000378 87.6384077,63.1280287 84.3564839,61.7990218 C81.9809921,60.8230698 81.5801036,60.3292276 81.5801036,59.5916147 Z" id="Shape" stroke="#FD627A" stroke-width="0.95" stroke-linecap="round" stroke-linejoin="round"></path>
                    </g>
                </g>
                <path d="M35.5995541,25.1859504 L80.2879269,25.1859504" id="Line-5-Copy-5" stroke="#FD627A" stroke-width="5" stroke-linecap="round"></path>
                <path d="M35.5995541,40.392562 L80.2879269,40.392562" id="Line-5-Copy-6" stroke="#FD627A" stroke-width="5" stroke-linecap="round"></path>
                <path d="M35.5995541,55.5991736 L74.5420168,55.5991736" id="Line-5-Copy-7" stroke="#FD627A" stroke-width="5" stroke-linecap="round"></path>
                <path d="M35.5973739,70.8057851 L71.7051471,70.8057851" id="Line-5-Copy-8" stroke="#FD627A" stroke-width="5" stroke-linecap="round"></path>
            </g>
        </g>
    </g>
</svg>