<svg width="180" height="180" viewBox="0 0 180 180" fill="none" xmlns="http://www.w3.org/2000/svg">
<path d="M105.478 124V121.5C105.302 121.5 105.127 121.519 104.954 121.556L105.478 124ZM86.5216 124L87.0456 121.556C86.8734 121.519 86.6977 121.5 86.5216 121.5V124ZM53.7851 64.3795L53.3894 66.848C54.5677 67.0369 55.7153 66.3666 56.1296 65.2474L53.7851 64.3795ZM140.856 76.3783L138.364 76.5767C138.455 77.7124 139.301 78.6433 140.424 78.8405L140.856 76.3783ZM139 123.877L138.753 121.389C137.474 121.516 136.5 122.592 136.5 123.877H139ZM139 124V126.5C140.381 126.5 141.5 125.381 141.5 124H139ZM136.5 121.5H105.478V126.5H136.5V121.5ZM104.954 121.556C102.07 122.174 99.0743 122.5 96 122.5V127.5C99.4288 127.5 102.775 127.136 106.002 126.444L104.954 121.556ZM96 122.5C92.9257 122.5 89.9303 122.174 87.0456 121.556L85.9975 126.444C89.2246 127.136 92.5712 127.5 96 127.5V122.5ZM86.5216 121.5H49V126.5H86.5216V121.5ZM49 121.5C33.8122 121.5 21.5 109.188 21.5 94H16.5C16.5 111.949 31.0507 126.5 49 126.5V121.5ZM21.5 94C21.5 78.8122 33.8122 66.5 49 66.5V61.5C31.0507 61.5 16.5 76.0507 16.5 94H21.5ZM49 66.5C50.4956 66.5 51.9615 66.6192 53.3894 66.848L54.1807 61.911C52.4922 61.6404 50.7616 61.5 49 61.5V66.5ZM56.1296 65.2474C62.1276 49.0435 77.7189 37.5 96 37.5V32.5C75.5598 32.5 58.1412 45.4095 51.4405 63.5117L56.1296 65.2474ZM96 37.5C118.319 37.5 136.623 54.7067 138.364 76.5767L143.348 76.1798C141.401 51.7313 120.948 32.5 96 32.5V37.5ZM140.424 78.8405C150.738 80.6538 158.5 89.4728 158.5 100H163.5C163.5 86.9304 153.88 76.1294 141.289 73.916L140.424 78.8405ZM158.5 100C158.5 111.089 149.886 120.284 138.753 121.389L139.247 126.364C152.828 125.016 163.5 113.767 163.5 100H158.5ZM136.5 123.877V124H141.5V123.877H136.5ZM139 121.5H136.5V126.5H139V121.5Z" fill="#FD627A"/>
<circle cx="90.5" cy="112.5" r="31.5" fill="white" stroke="#FD627A" stroke-width="5"/>
<path d="M76.7793 115.311C80.5324 111.632 85.5784 109.571 90.8338 109.571C96.0893 109.571 101.135 111.632 104.888 115.311" stroke="#FD627A" stroke-width="4.4295" stroke-linecap="round" stroke-linejoin="round"/>
<path d="M83.8062 122.339C85.6827 120.499 88.2057 119.469 90.8334 119.469C93.4611 119.469 95.9841 120.499 97.8607 122.339" stroke="#FD627A" stroke-width="4.4295" stroke-linecap="round" stroke-linejoin="round"/>
<path d="M70.7554 106.919C76.277 101.98 83.4252 99.25 90.8333 99.25C98.2414 99.25 105.39 101.98 110.911 106.919" stroke="#FD627A" stroke-width="4.4295" stroke-linecap="round" stroke-linejoin="round"/>
<ellipse cx="2.82734" cy="2.82734" rx="2.82734" ry="2.82734" transform="matrix(4.37114e-08 1 1 -4.37114e-08 88.1631 126.345)" fill="#FD627A"/>
</svg>
