<svg width="180" height="180" viewBox="0 0 180 180" fill="none" xmlns="http://www.w3.org/2000/svg">
<ellipse cx="48.1536" cy="13.1328" rx="48.1536" ry="13.1328" transform="matrix(-1 0 0 1 135.614 38)" stroke="#FD627A" stroke-width="5"/>
<path d="M135.614 51.1326C135.614 57.699 135.614 72.7035 135.614 75.7545C135.614 83.0075 114.055 88.8872 87.4602 88.8872C60.8657 88.8872 39.3067 83.0075 39.3067 75.7545C39.3067 72.7035 39.3067 59.1582 39.3066 51.1326" stroke="#FD627A" stroke-width="5"/>
<path d="M135.614 74.979C135.614 80.3929 135.614 91.5429 135.614 97M39.3066 74.979C39.3067 83.0046 39.3067 96.5499 39.3067 99.6009C39.3067 106.854 60.8657 112.734 87.4602 112.734C91.9792 112.734 96.3528 112.564 100.5 112.246" stroke="#FD627A" stroke-width="5"/>
<path d="M39.3066 99.1577C39.3067 107.183 39.3067 120.729 39.3067 123.78C39.3067 131.033 60.8657 136.912 87.4602 136.912C92.7123 136.912 97.768 136.683 102.5 136.259" stroke="#FD627A" stroke-width="5"/>
<circle cx="126.421" cy="122.445" r="27.5789" stroke="#FD627A" stroke-width="5"/>
<path d="M110 128L119.514 118.483L129.459 128L142 116" stroke="#FD627A" stroke-width="5" stroke-linecap="round" stroke-linejoin="round"/>
</svg>
