<svg xmlns="http://www.w3.org/2000/svg" width="44" height="37" viewBox="0 0 44 37">
    <g fill="none" fill-rule="evenodd">
        <g fill="#FD627A">
            <g>
                <path d="M33.403 16.251L28.2 7.744l2.695-4.36 7.869 12.867h-5.361zm-17.71 11.956H26.21l2.626 4.256H13.114l2.579-4.256zM26.207 6.592H15.68l-2.573-4.265h15.737l-2.637 4.265zM26.2 25.918H15.677l-5.21-8.518 5.21-8.519h10.522l5.21 8.519-5.21 8.518zM11.063 3.392l2.62 4.342-5.208 8.514H3.201l7.862-12.856zM3.2 18.537h5.268l5.222 8.539-2.622 4.327-7.868-12.866zM30.89 31.412l-2.69-4.36 5.207-8.512h5.355L30.89 31.412zM41.796 16.8L31.881.588c-.209-.342-.582-.55-.984-.55h-19.83c-.403 0-.776.208-.985.55L.168 16.8c-.224.366-.224.824 0 1.189L10.081 34.2c.21.342.582.55.985.55h19.83c.402 0 .775-.208.984-.55l9.915-16.212c.223-.365.223-.823 0-1.189z" transform="translate(1.000000, 1.000000)"/>
                <path d="M19.273 22.858c-.68-.186-1.235-.448-1.665-.788-.15-.11-.258-.227-.323-.352-.065-.126-.098-.283-.098-.473 0-.25.078-.47.233-.66.155-.19.332-.285.532-.285.11 0 .218.017.323.052.105.036.232.098.383.188.43.27.864.467 1.304.593.44.125.925.187 1.456.187.66 0 1.164-.11 1.515-.33.35-.22.524-.535.524-.945 0-.31-.162-.56-.487-.75-.325-.19-.902-.37-1.732-.54-.93-.19-1.673-.42-2.228-.69-.555-.27-.96-.605-1.215-1.005-.255-.4-.383-.885-.383-1.455 0-.63.183-1.197.548-1.703.365-.505.87-.9 1.515-1.184.645-.286 1.372-.428 2.182-.428 1.42 0 2.59.355 3.51 1.065.15.12.258.242.323.367.065.126.098.278.098.458 0 .25-.078.47-.233.66-.155.19-.332.285-.532.285-.11 0-.213-.015-.308-.045s-.227-.095-.398-.195c-.41-.26-.787-.455-1.132-.585-.345-.13-.782-.195-1.313-.195-.61 0-1.09.117-1.44.352-.35.236-.524.558-.524.968 0 .24.067.437.202.592.135.156.36.293.675.413.315.12.762.245 1.342.375 1.36.3 2.338.685 2.933 1.155.595.47.893 1.115.893 1.935 0 .64-.178 1.205-.533 1.695-.355.49-.855.87-1.5 1.14-.645.27-1.392.405-2.242.405-.79 0-1.525-.092-2.206-.277z" transform="translate(1.000000, 1.000000)"/>
            </g>
        </g>
    </g>
</svg>
