<svg xmlns="http://www.w3.org/2000/svg" width="44" height="37" viewBox="0 0 44 37">
    <g fill="none" fill-rule="evenodd">
        <g fill="#FD627A">
            <path d="M33.403 16.251L28.2 7.744l2.695-4.36 7.869 12.867h-5.361zm-17.71 11.956H26.21l2.626 4.256H13.114l2.579-4.256zM26.207 6.592H15.68l-2.573-4.265h15.737l-2.637 4.265zM26.2 25.918H15.677l-5.21-8.518 5.21-8.519h10.522l5.21 8.519-5.21 8.518zM11.063 3.392l2.62 4.342-5.208 8.514H3.201l7.862-12.856zM3.2 18.537h5.268l5.222 8.539-2.622 4.327-7.868-12.866zM30.89 31.412l-2.69-4.36 5.207-8.512h5.355L30.89 31.412zM41.796 16.8L31.881.588c-.209-.342-.582-.55-.984-.55h-19.83c-.403 0-.776.208-.985.55L.168 16.8c-.224.366-.224.824 0 1.189L10.081 34.2c.21.342.582.55.985.55h19.83c.402 0 .775-.208.984-.55l9.915-16.212c.223-.365.223-.823 0-1.189z" transform="translate(1.000000, 1.000000)"/>
            <path d="M26.188 22.16c0 .28-.113.51-.338.69-.225.18-.487.27-.788.27-.19 0-.374-.045-.555-.135-.18-.09-.33-.23-.45-.42l-1.98-2.94c-.17-.26-.35-.447-.54-.563-.19-.115-.43-.172-.72-.172h-1.215v3.03c0 .36-.102.645-.307.855-.205.21-.482.315-.833.315-.36 0-.644-.105-.854-.315-.21-.21-.316-.495-.316-.855v-8.4c0-.35.095-.62.285-.81.19-.19.46-.285.81-.285h3.765c1.24 0 2.178.272 2.813.817.635.546.953 1.333.953 2.363 0 .81-.225 1.485-.675 2.025-.45.54-1.085.895-1.905 1.065.3.06.567.177.802.352.235.176.462.428.683.758l1.14 1.71c.15.22.224.435.224.645zm-2.925-5.393c.3-.235.45-.602.45-1.102 0-.51-.15-.88-.45-1.11-.3-.23-.785-.345-1.456-.345h-2.234v2.91h2.235c.67 0 1.154-.117 1.454-.353z" transform="translate(1.000000, 1.000000)"/>
        </g>
    </g>
</svg>
