<svg width="180" height="180" viewBox="0 0 180 180" fill="none" xmlns="http://www.w3.org/2000/svg">
<path d="M67.5676 111.813C72.1906 109.733 78.875 104.809 85.9105 106.911C90.3844 108.248 108.718 112.981 111.85 114.763C112.744 115.272 114.991 116.176 115.619 117.59M89.2386 123.243C101.486 125.598 111.72 128.728 114.991 124.656C117.114 122.013 116.561 119.474 115.619 117.59M68.9098 140.778L103.806 145.234C105.894 145.976 111.591 146.66 117.675 143.451C125.281 139.441 147.146 118.992 148.992 117.16C152.832 113.35 153.776 107.427 148.122 105.813C144.825 104.871 142.72 106.682 136.344 109.581C131.164 111.937 123.311 115.139 115.619 117.59" stroke="#FD627A" stroke-width="5" stroke-linecap="round"/>
<rect width="20.7272" height="45.223" rx="5.65288" transform="matrix(1 -8.74228e-08 -8.74228e-08 -1 46.8428 150.565)" stroke="#FD627A" stroke-width="4.8"/>
<path d="M28.0005 144.912L46.8434 144.912L46.8434 110.994L28.0005 110.994" stroke="#FD627A" stroke-width="5" stroke-linecap="round"/>
<path d="M120.398 29L122.883 28.7285C122.745 27.4604 121.674 26.5 120.398 26.5V29ZM106.98 29V26.5C105.728 26.5 104.67 27.4252 104.502 28.6653L106.98 29ZM121.297 37.2324L118.812 37.5039C118.917 38.4648 119.567 39.279 120.48 39.595L121.297 37.2324ZM129.898 42.5026L128.171 44.3102C128.862 44.9705 129.869 45.1789 130.766 44.8472L129.898 42.5026ZM137.961 39.5193L140.168 38.3456C139.581 37.2407 138.267 36.7404 137.093 37.1746L137.961 39.5193ZM144.26 51.3668L145.667 53.4336C146.721 52.716 147.067 51.3194 146.468 50.1931L144.26 51.3668ZM137.184 56.1826L135.777 54.1158C134.964 54.669 134.551 55.6476 134.721 56.6161L137.184 56.1826ZM137.072 65.6772L134.621 65.1854C134.424 66.1707 134.835 67.1786 135.666 67.744L137.072 65.6772ZM144.136 70.4841L146.344 71.6578C146.942 70.5315 146.597 69.135 145.543 68.4173L144.136 70.4841ZM137.837 82.3317L136.969 84.6763C138.143 85.1106 139.457 84.6102 140.044 83.5054L137.837 82.3317ZM129.416 79.2157L130.283 76.8711C129.41 76.5479 128.429 76.737 127.738 77.3619L129.416 79.2157ZM121.286 84.0412L120.47 81.6782C119.578 81.9864 118.935 82.7709 118.809 83.7065L121.286 84.0412ZM120.203 92.0545V94.5545C121.455 94.5545 122.513 93.6294 122.681 92.3893L120.203 92.0545ZM106.785 92.0545L104.3 92.3261C104.439 93.5942 105.51 94.5545 106.785 94.5545V92.0545ZM105.898 83.9378L108.384 83.6663C108.28 82.717 107.644 81.9098 106.746 81.586L105.898 83.9378ZM98.1184 79.2667L99.7898 77.4076C99.0994 76.7868 98.1217 76.5998 97.2508 76.922L98.1184 79.2667ZM89.9014 82.3071L87.694 83.4807C88.2815 84.5856 89.5954 85.0859 90.7689 84.6517L89.9014 82.3071ZM83.6019 70.4595L82.1954 68.3927C81.1409 69.1104 80.7957 70.5069 81.3946 71.6332L83.6019 70.4595ZM90.4323 65.8114L91.8388 67.8782C92.6737 67.31 93.0848 66.2953 92.8808 65.3063L90.4323 65.8114ZM90.3412 55.9222L92.7986 56.3815C92.981 55.4055 92.5685 54.414 91.7477 53.8554L90.3412 55.9222ZM83.5708 51.3149L81.3634 50.1413C80.7646 51.2676 81.1097 52.6641 82.1643 53.3818L83.5708 51.3149ZM89.8702 39.4674L90.7378 37.1228C89.5642 36.6885 88.2504 37.1889 87.6629 38.2937L89.8702 39.4674ZM97.718 42.3712L96.8505 44.7158C97.7402 45.0451 98.7397 44.8423 99.4307 44.1924L97.718 42.3712ZM105.852 37.3487L106.705 39.6988C107.579 39.3815 108.205 38.6051 108.329 37.6835L105.852 37.3487ZM120.398 26.5H106.98V31.5H120.398V26.5ZM123.783 36.9609L122.883 28.7285L117.913 29.2715L118.812 37.5039L123.783 36.9609ZM131.625 40.695C128.926 38.1163 125.696 36.1085 122.115 34.8698L120.48 39.595C123.36 40.5913 125.975 42.2118 128.171 44.3102L131.625 40.695ZM137.093 37.1746L129.031 40.158L130.766 44.8472L138.828 41.8639L137.093 37.1746ZM146.468 50.1931L140.168 38.3456L135.753 40.6929L142.053 52.5405L146.468 50.1931ZM138.59 58.2494L145.667 53.4336L142.854 49.3L135.777 54.1158L138.59 58.2494ZM140.071 60.6348C140.071 58.9689 139.925 57.3358 139.646 55.749L134.721 56.6161C134.951 57.9176 135.071 59.2606 135.071 60.6348H140.071ZM139.524 66.169C139.883 64.38 140.071 62.5288 140.071 60.6348H135.071C135.071 62.197 134.916 63.7188 134.621 65.1854L139.524 66.169ZM145.543 68.4173L138.479 63.6103L135.666 67.744L142.73 72.551L145.543 68.4173ZM140.044 83.5054L146.344 71.6578L141.929 69.3105L135.629 81.158L140.044 83.5054ZM128.548 81.5604L136.969 84.6763L138.704 79.987L130.283 76.8711L128.548 81.5604ZM122.102 86.4043C125.456 85.2462 128.502 83.4136 131.093 81.0695L127.738 77.3619C125.631 79.268 123.167 80.7468 120.47 81.6782L122.102 86.4043ZM118.809 83.7065L117.726 91.7198L122.681 92.3893L123.764 84.376L118.809 83.7065ZM120.203 89.5545H106.785V94.5545H120.203V89.5545ZM109.27 91.783L108.384 83.6663L103.413 84.2094L104.3 92.3261L109.27 91.783ZM96.4469 81.1257C98.9401 83.3673 101.852 85.1366 105.051 86.2897L106.746 81.586C104.173 80.6583 101.817 79.2302 99.7898 77.4076L96.4469 81.1257ZM90.7689 84.6517L98.9859 81.6113L97.2508 76.922L89.0338 79.9624L90.7689 84.6517ZM81.3946 71.6332L87.694 83.4807L92.1088 81.1334L85.8093 69.2858L81.3946 71.6332ZM89.0258 63.7445L82.1954 68.3927L85.0084 72.5263L91.8388 67.8782L89.0258 63.7445ZM87.4068 60.6348C87.4068 62.5809 87.6054 64.4818 87.9839 66.3164L92.8808 65.3063C92.5706 63.8025 92.4068 62.2399 92.4068 60.6348H87.4068ZM87.8837 55.463C87.5704 57.1393 87.4068 58.8685 87.4068 60.6348H92.4068C92.4068 59.1779 92.5417 57.7561 92.7986 56.3815L87.8837 55.463ZM82.1643 53.3818L88.9347 57.9891L91.7477 53.8554L84.9773 49.2481L82.1643 53.3818ZM87.6629 38.2937L81.3634 50.1413L85.7782 52.4886L92.0776 40.6411L87.6629 38.2937ZM98.5856 40.0266L90.7378 37.1228L89.0027 41.812L96.8505 44.7158L98.5856 40.0266ZM104.999 34.9987C101.63 36.2214 98.5807 38.128 96.0053 40.55L99.4307 44.1924C101.526 42.2217 103.994 40.6824 106.705 39.6988L104.999 34.9987ZM104.502 28.6653L103.374 37.014L108.329 37.6835L109.457 29.3347L104.502 28.6653Z" fill="#FD627A"/>
<circle cx="113.915" cy="60.9908" r="9.73638" stroke="#FD627A" stroke-width="5" stroke-linecap="round" stroke-linejoin="round"/>
<path d="M61.9911 56.4551L63.9792 56.2378C63.8684 55.2234 63.0116 54.4551 61.9911 54.4551V56.4551ZM55.274 56.4551V54.4551C54.2729 54.4551 53.426 55.1952 53.292 56.1873L55.274 56.4551ZM62.4414 60.5762L60.4532 60.7934C60.5372 61.5621 61.0567 62.2134 61.7875 62.4662L62.4414 60.5762ZM66.7467 63.2145L65.3651 64.6606C65.918 65.1888 66.7236 65.3556 67.4408 65.0903L66.7467 63.2145ZM70.7836 61.7209L72.5495 60.7819C72.0795 59.898 71.0284 59.4977 70.0896 59.8451L70.7836 61.7209ZM73.9371 67.6517L75.0623 69.3052C75.9059 68.731 76.1821 67.6138 75.703 66.7127L73.9371 67.6517ZM70.3937 70.063L69.2685 68.4096C68.6181 68.8522 68.2876 69.635 68.4239 70.4098L70.3937 70.063ZM70.3379 74.8155L68.377 74.4221C68.2188 75.2103 68.548 76.0167 69.2127 76.469L70.3379 74.8155ZM73.8739 77.2218L75.6398 78.1608C76.1189 77.2597 75.8428 76.1425 74.9991 75.5684L73.8739 77.2218ZM70.7204 83.1527L70.0264 85.0284C70.9652 85.3758 72.0163 84.9755 72.4863 84.0916L70.7204 83.1527ZM66.5048 81.5928L67.1989 79.7171C66.5001 79.4586 65.7155 79.6099 65.163 80.1098L66.5048 81.5928ZM62.4356 84.0083L61.7827 82.1179C61.0689 82.3644 60.5548 82.9921 60.4536 83.7405L62.4356 84.0083ZM61.8936 88.0199V90.0199C62.8947 90.0199 63.7415 89.2798 63.8756 88.2877L61.8936 88.0199ZM55.1765 88.0199L53.1883 88.2372C53.2992 89.2516 54.156 90.0199 55.1765 90.0199V88.0199ZM54.7325 83.9567L56.7207 83.7395C56.6377 82.9801 56.1294 82.3342 55.4107 82.0752L54.7325 83.9567ZM50.8379 81.6184L52.175 80.1311C51.6226 79.6345 50.8405 79.4849 50.1438 79.7427L50.8379 81.6184ZM46.7242 83.1405L44.9583 84.0795C45.4283 84.9634 46.4794 85.3636 47.4182 85.0162L46.7242 83.1405ZM43.5707 77.2097L42.4455 75.5562C41.6018 76.1304 41.3257 77.2476 41.8048 78.1486L43.5707 77.2097ZM46.9901 74.8828L48.1153 76.5362C48.7832 76.0817 49.1121 75.2699 48.9488 74.4787L46.9901 74.8828ZM46.9443 69.9326L48.9103 70.2999C49.0562 69.5191 48.7262 68.726 48.0695 68.2792L46.9443 69.9326ZM43.5547 67.6259L41.7888 66.687C41.3097 67.588 41.5858 68.7053 42.4295 69.2794L43.5547 67.6259ZM46.7082 61.6951L47.4022 59.8194C46.4633 59.472 45.4123 59.8723 44.9423 60.7562L46.7082 61.6951ZM50.6369 63.1488L49.9429 65.0245C50.6547 65.2879 51.4543 65.1257 52.0072 64.6057L50.6369 63.1488ZM54.7093 60.6341L55.3915 62.5142C56.091 62.2604 56.5917 61.6393 56.6913 60.9019L54.7093 60.6341ZM61.9911 54.4551H55.274V58.4551H61.9911V54.4551ZM64.4295 60.3589L63.9792 56.2378L60.0029 56.6723L60.4532 60.7934L64.4295 60.3589ZM68.1284 61.7685C66.702 60.4057 64.9928 59.3426 63.0952 58.6861L61.7875 62.4662C63.1242 62.9287 64.3408 63.682 65.3651 64.6606L68.1284 61.7685ZM70.0896 59.8451L66.0527 61.3388L67.4408 65.0903L71.4776 63.5966L70.0896 59.8451ZM75.703 66.7127L72.5495 60.7819L69.0177 62.6598L72.1712 68.5906L75.703 66.7127ZM71.5189 71.7165L75.0623 69.3052L72.8119 65.9982L69.2685 68.4096L71.5189 71.7165ZM72.5874 72.2912C72.5874 71.4138 72.5107 70.5531 72.3634 69.7163L68.4239 70.4098C68.5311 71.0184 68.5874 71.6471 68.5874 72.2912H72.5874ZM72.2988 75.209C72.4882 74.2652 72.5874 73.289 72.5874 72.2912H68.5874C68.5874 73.0236 68.5146 73.7361 68.377 74.4221L72.2988 75.209ZM74.9991 75.5684L71.4631 73.1621L69.2127 76.469L72.7487 78.8753L74.9991 75.5684ZM72.4863 84.0916L75.6398 78.1608L72.108 76.2829L68.9545 82.2137L72.4863 84.0916ZM65.8108 83.4686L70.0264 85.0284L71.4144 81.2769L67.1989 79.7171L65.8108 83.4686ZM63.0885 85.8987C64.8654 85.285 66.4773 84.3148 67.8466 83.0759L65.163 80.1098C64.1809 80.9983 63.0345 81.6856 61.7827 82.1179L63.0885 85.8987ZM60.4536 83.7405L59.9116 87.7522L63.8756 88.2877L64.4176 84.2761L60.4536 83.7405ZM61.8936 86.0199H55.1765V90.0199H61.8936V86.0199ZM57.1647 87.8027L56.7207 83.7395L52.7444 84.1739L53.1883 88.2372L57.1647 87.8027ZM49.5007 83.1057C50.8186 84.2905 52.3593 85.2272 54.0544 85.8382L55.4107 82.0752C54.2161 81.6446 53.1201 80.9808 52.175 80.1311L49.5007 83.1057ZM47.4182 85.0162L51.5319 83.4941L50.1438 79.7427L46.0302 81.2648L47.4182 85.0162ZM41.8048 78.1486L44.9583 84.0795L48.4901 82.2016L45.3366 76.2707L41.8048 78.1486ZM45.8649 73.2293L42.4455 75.5562L44.6959 78.8631L48.1153 76.5362L45.8649 73.2293ZM44.727 72.2912C44.727 73.3165 44.8316 74.3189 45.0313 75.2869L48.9488 74.4787C48.8037 73.7753 48.727 73.0438 48.727 72.2912H44.727ZM44.9783 69.5653C44.8132 70.4494 44.727 71.3609 44.727 72.2912H48.727C48.727 71.6083 48.7902 70.9427 48.9103 70.2999L44.9783 69.5653ZM42.4295 69.2794L45.8191 71.5861L48.0695 68.2792L44.6799 65.9725L42.4295 69.2794ZM44.9423 60.7562L41.7888 66.687L45.3206 68.5649L48.4741 62.634L44.9423 60.7562ZM51.331 61.2731L47.4022 59.8194L46.0141 63.5708L49.9429 65.0245L51.331 61.2731ZM54.0271 58.7541C52.2415 59.402 50.628 60.4116 49.2667 61.6919L52.0072 64.6057C52.9844 63.6866 54.133 62.9709 55.3915 62.5142L54.0271 58.7541ZM53.292 56.1873L52.7273 60.3663L56.6913 60.9019L57.256 56.7229L53.292 56.1873Z" fill="#FD627A"/>
<circle cx="58.7451" cy="72.4696" r="4.874" stroke="#FD627A" stroke-width="4" stroke-linecap="round" stroke-linejoin="round"/>
</svg>
