<?xml version="1.0" encoding="UTF-8" standalone="no"?>
<svg width="127px" height="130px" viewBox="0 0 127 130" version="1.1" xmlns="http://www.w3.org/2000/svg" xmlns:xlink="http://www.w3.org/1999/xlink">
    <!-- Generator: Sketch 50.2 (55047) - http://www.bohemiancoding.com/sketch -->
    <title>Versatile</title>
    <desc>Created with Sketch.</desc>
    <defs></defs>
    <g id="Page-1" stroke="none" stroke-width="1" fill="none" fill-rule="evenodd">
        <g id="Propozycje-ikon" transform="translate(-729.000000, -293.000000)">
            <g id="Versatile" transform="translate(796.521852, 360.207912) rotate(-12.000000) translate(-796.521852, -360.207912) translate(736.021852, 300.207912)">
                <g id="noun_folding-Knife_1962602-Copy-4" transform="translate(2.000000, 0.000000)" fill="#FD627A" fill-rule="nonzero">
                    <g id="Group">
                        <path d="M112.265921,45.9942748 L112.265921,12.7435372 C112.265809,12.2208697 112.058227,11.71965 111.688834,11.3501241 L101.840947,1.49571788 C101.071827,0.726321435 99.8250836,0.726321435 99.0559639,1.49571788 L89.2080761,11.3501241 C88.8386831,11.71965 88.6311015,12.2208697 88.6309899,12.7435372 L88.6309899,40.3358747 L61.8723093,40.3358747 L68.3581282,33.8457627 C72.618622,29.687299 76.0988637,24.7975837 78.6334142,19.4090576 C80.7369231,14.3202422 80.7349535,8.73870647 80.7329839,3.35031713 L80.7329839,2.90883973 C80.732446,2.24811445 80.4010815,1.6316172 79.8504725,1.26694412 C79.2998635,0.902271047 78.6032744,0.837945818 77.9952711,1.09562898 L50.4330028,12.9031786 C49.7089786,13.2137553 49.2395258,13.9261525 49.2394388,14.7144184 L49.2394388,18.6561809 L45.3002837,18.6561809 C44.2125161,18.6561809 43.3307062,19.5385745 43.3307062,20.6270622 L43.3307062,24.5688247 L39.3915511,24.5688247 C38.3037834,24.5688247 37.4219735,25.4512183 37.4219735,26.5397059 L37.4219735,30.4814684 L33.4828184,30.4814684 C32.3950508,30.4814684 31.5132409,31.363862 31.5132409,32.4523497 L31.5132409,36.3941122 L27.5740858,36.3941122 C26.4863181,36.3941122 25.6045082,37.2765058 25.6045082,38.3649934 L25.6045082,40.3358747 L21.6653531,40.3358747 C18.4969537,40.3358747 15.6683066,40.7313239 13.1794119,41.5222223 C10.6905172,42.3131207 8.26695743,43.8044618 5.90873266,45.9962456 C2.06411085,49.7914036 -0.0197850923,54.8121159 -5.333445e-13,60.0446872 C0.0119403088,70.9246108 8.82304875,79.7415515 19.6957755,79.7534997 L78.0346627,79.7534997 C77.4155015,80.5244456 77.4722556,81.6373923 78.1666244,82.3412668 L79.5571461,83.7366507 C80.0691508,84.2314887 80.2744911,84.9642691 80.0942443,85.6533472 C79.9139976,86.3424252 79.3762143,86.8805644 78.6875921,87.0609305 C77.9989698,87.2412966 77.2666741,87.0358203 76.7721635,86.5234768 L73.9871808,83.7366507 C72.4988303,82.2225034 70.3132599,81.6234733 68.2615823,82.1673553 C66.2099047,82.7112372 64.6073613,84.3144635 64.0633555,86.3673708 C63.5193497,88.4202782 64.1174684,90.6074364 65.6302632,92.097129 L68.4172155,94.8859259 C69.1862672,95.656031 69.1858263,96.9041767 68.4162307,97.6737374 C67.6466351,98.4432982 66.399315,98.442857 65.6302632,97.672752 L62.8452806,94.8859259 C61.3617487,93.3488953 59.1648616,92.7324666 57.0989948,93.2735648 C55.0331279,93.814663 53.4197783,95.4290806 52.879038,97.4963149 C52.3382977,99.5635491 52.9543186,101.76189 54.4903326,103.246404 L57.2753153,106.03323 C58.0449108,106.802791 58.0453517,108.050937 57.2763,108.821042 C56.5072483,109.591147 55.2599282,109.591588 54.4903326,108.822027 L51.7033804,106.03323 C49.3645758,103.802317 45.6872369,103.802317 43.3484324,106.03323 C42.2401136,107.142095 41.6174508,108.646151 41.6174508,110.214455 C41.6174508,111.782759 42.2401136,113.286815 43.3484324,114.395679 L40.5732976,117.182506 L43.3582803,119.969332 L47.5357543,115.789092 C48.3046418,115.019464 48.3046418,113.771895 47.5357543,113.002266 L46.1432629,111.608853 C45.3968478,110.835521 45.4075226,109.606271 46.1672552,108.846035 C46.9269878,108.0858 48.1554249,108.075118 48.9282456,108.822027 L51.7132282,111.608853 C53.2060478,113.102661 55.3818797,113.686059 57.4211091,113.139288 C59.4603385,112.592516 61.053158,110.998642 61.5995679,108.958063 C62.1459777,106.917484 61.5629653,104.740212 60.0701458,103.246404 L57.2753153,100.459578 C56.5064278,99.6899493 56.5064278,98.4423809 57.2753153,97.672752 C58.0538408,96.926429 59.2817724,96.926429 60.0602979,97.672752 L62.8452806,100.459578 C64.3336311,101.973725 66.5192015,102.572755 68.5708791,102.028874 C70.6225567,101.484992 72.2251001,99.8817653 72.7691059,97.828858 C73.3131117,95.7759506 72.714993,93.5887924 71.2021981,92.0990998 L68.4152459,89.3103029 C67.9177566,88.8121323 67.7236527,88.0862206 67.9060511,87.4060118 C68.0884495,86.725803 68.6196396,86.194637 69.2995272,86.0125988 C69.9794148,85.8305606 70.7047089,86.0253062 71.2021981,86.5234768 L73.9871808,89.3103029 C76.3254417,91.5444782 80.0058375,91.5444782 82.3440984,89.3103029 C84.6466489,86.9989447 84.6466489,83.2592119 82.3440984,80.9478537 L83.5376624,79.7534997 L98.4788777,79.7534997 C106.478632,79.7610034 113.686747,74.9216114 116.713008,67.5114497 C119.739269,60.101288 117.981295,51.5953561 112.265921,45.9942748 Z M92.570145,13.559482 L100.507738,5.46629183 L108.326765,13.559482 L108.326765,43.002477 C105.337777,41.2572676 101.939481,40.33708 98.4788777,40.3358747 L92.570145,40.3358747 L92.570145,13.559482 Z M35.452396,38.3649934 L35.452396,34.4232309 L39.3915511,34.4232309 C40.4793187,34.4232309 41.3611286,33.5408373 41.3611286,32.4523497 L41.3611286,28.5105872 L45.3002837,28.5105872 C46.3880514,28.5105872 47.2698613,27.6281936 47.2698613,26.5397059 L47.2698613,22.5979434 L51.2090164,22.5979434 C52.296784,22.5979434 53.1785939,21.7155498 53.1785939,20.6270622 L53.1785939,16.0152001 L76.7859505,5.89866659 C76.947265,9.97669496 76.3392185,14.0486228 74.9936349,17.9013334 C72.6807148,22.8248485 69.4881102,27.2839613 65.5731455,31.0589366 L56.3023439,40.3358747 L33.4828184,40.3358747 C34.5705861,40.3358747 35.452396,39.4534811 35.452396,38.3649934 Z M98.4788777,75.8117372 L19.6957755,75.8117372 C10.997684,75.8019619 3.94892398,68.7485362 3.93915511,60.0446872 C3.95541329,51.3435337 11.0003776,44.2939061 19.6957755,44.2776372 L98.4788777,44.2776372 C107.176969,44.2874125 114.225729,51.3408382 114.235498,60.0446872 C114.250685,64.2309689 112.582691,68.2474591 109.606991,71.1900207 C106.667768,74.1625689 102.657768,75.8279981 98.4788777,75.8117372 Z" id="Shape" stroke="#FD627A" stroke-width="0.5" stroke-linecap="round" stroke-linejoin="round"></path>
                        <path d="M21.6653531,54.1320434 C18.4020502,54.1320434 15.7566204,56.7792242 15.7566204,60.0446872 C15.7566204,63.3101502 18.4020502,65.9573309 21.6653531,65.9573309 C24.928656,65.9573309 27.5740858,63.3101502 27.5740858,60.0446872 C27.5740858,56.7792242 24.928656,54.1320434 21.6653531,54.1320434 Z M21.6653531,62.0155684 C20.5775854,62.0155684 19.6957755,61.1331748 19.6957755,60.0446872 C19.6957755,58.9561995 20.5775854,58.0738059 21.6653531,58.0738059 C22.7531207,58.0738059 23.6349306,58.9561995 23.6349306,60.0446872 C23.6349306,61.1331748 22.7531207,62.0155684 21.6653531,62.0155684 Z" id="Shape"></path>
                        <path d="M94.5397226,60.0446872 C94.5397226,63.3101502 97.1851523,65.9573309 100.448455,65.9573309 C103.711758,65.9573309 106.357188,63.3101502 106.357188,60.0446872 C106.357188,56.7792242 103.711758,54.1320434 100.448455,54.1320434 C97.1851523,54.1320434 94.5397226,56.7792242 94.5397226,60.0446872 Z M100.448455,62.0155684 C99.3606876,62.0155684 98.4788777,61.1331748 98.4788777,60.0446872 C98.4788777,58.9561995 99.3606876,58.0738059 100.448455,58.0738059 C101.536223,58.0738059 102.418033,58.9561995 102.418033,60.0446872 C102.418033,61.1331748 101.536223,62.0155684 100.448455,62.0155684 Z" id="Shape"></path>
                    </g>
                </g>
                <path d="M6.85555414,15.17965 C8.71774373,11.1276821 10.1544853,9.10169809 11.1657789,9.10169809 C12.1770725,9.10169809 13.7591333,11.1276821 15.9119612,15.17965 L16.512593,43.7592694 L5.88919581,43.8435471 L6.85555414,15.17965 Z" id="Rectangle-4-Copy" stroke="#FD627A" stroke-width="5" stroke-linecap="round" stroke-linejoin="round" transform="translate(11.200894, 26.472623) rotate(-19.000000) translate(-11.200894, -26.472623) "></path>
            </g>
        </g>
    </g>
</svg>