<svg width="824" height="965" viewBox="0 0 824 965" fill="none" xmlns="http://www.w3.org/2000/svg">
<g clip-path="url(#clip0_172:18724)">
<path fill-rule="evenodd" clip-rule="evenodd" d="M503.036 319.405C528.719 335.328 557.277 347.242 588.158 354.465C588.171 354.455 588.184 354.445 588.197 354.434C588.2 354.436 588.202 354.436 588.202 354.436C548.933 384.626 524.492 406.715 499.421 433.378C473.345 461.108 445.615 493.758 412.249 546.356C411.002 544.541 409.071 541.591 406.667 537.919C399.239 526.577 387.299 508.343 377.094 495.368C394.627 420.41 439.976 359.078 503.036 319.405Z" fill="#2E52D0"/>
<path fill-rule="evenodd" clip-rule="evenodd" d="M412.115 228.522C428.082 202.842 439.952 174.378 447.175 143.497C447.165 143.484 447.155 143.471 447.144 143.458C447.145 143.455 447.146 143.453 447.146 143.453C477.336 182.723 499.425 207.163 526.088 232.235C553.818 258.31 586.468 286.04 639.066 319.406C637.25 320.653 634.301 322.584 630.629 324.989C619.287 332.416 601.053 344.356 588.078 354.561C513.12 337.029 451.788 291.582 412.115 228.522Z" fill="#9D63D3"/>
<path fill-rule="evenodd" clip-rule="evenodd" d="M321.236 319.445C295.554 303.522 266.995 291.608 236.114 284.386C236.101 284.396 236.088 284.406 236.075 284.416C236.072 284.415 236.07 284.415 236.07 284.415C275.34 254.224 299.78 232.135 324.852 205.473C350.927 177.743 378.657 145.092 412.023 92.4944C413.27 94.31 415.202 97.2595 417.606 100.931C425.034 112.274 436.974 130.507 447.178 143.482C429.646 218.441 384.296 279.773 321.236 319.445Z" fill="#82E0FF"/>
<path fill-rule="evenodd" clip-rule="evenodd" d="M412.25 410.247C396.327 435.929 384.324 464.488 377.102 495.369C377.112 495.382 377.122 495.395 377.133 495.408C377.132 495.412 377.131 495.413 377.131 495.413C346.941 456.144 324.852 431.703 298.189 406.632C270.459 380.556 237.809 352.826 185.211 319.46C187.026 318.213 189.976 316.282 193.648 313.878C204.99 306.45 223.224 294.51 236.199 284.306C311.157 301.837 372.578 347.187 412.25 410.247Z" fill="#51AB96"/>
</g>
<g clip-path="url(#clip1_172:18724)">
<path d="M174.052 718.707L130.043 826.665H93.6074L152.969 684.882H195.136L254.702 826.665H217.653L174.052 718.707ZM209.874 803.372H137.822L145.395 776.636H201.891L209.874 803.372Z" fill="#161239"/>
<path d="M273.061 826.665V684.882H347.57C358.077 684.882 367.084 686.3 374.589 689.136C382.231 691.971 388.031 696.09 391.989 701.491C396.082 706.757 398.129 713.171 398.129 720.733C398.129 726.269 396.969 731.4 394.65 736.126C392.466 740.852 389.259 744.836 385.029 748.077C380.799 751.317 375.886 753.613 370.291 754.963L369.267 751.722C379.912 753.343 388.372 757.461 394.65 764.078C400.927 770.559 404.066 778.594 404.066 788.181C404.066 796.148 401.882 803.034 397.515 808.841C393.148 814.512 386.803 818.9 378.479 822.006C370.291 825.112 360.602 826.665 349.412 826.665H273.061ZM305.403 767.724V742.608H340.815C346 742.608 350.231 742.068 353.506 740.987C356.917 739.772 359.442 738.084 361.08 735.924C362.717 733.628 363.536 730.793 363.536 727.417C363.536 722.151 361.694 718.37 358.009 716.074C354.325 713.644 348.593 712.428 340.815 712.428H307.654V799.118H344.704C350.299 799.118 354.871 798.578 358.419 797.498C361.967 796.283 364.628 794.527 366.402 792.232C368.176 789.936 369.063 787.033 369.063 783.522C369.063 778.121 367.016 774.138 362.922 771.572C358.828 769.006 352.551 767.724 344.09 767.724H305.403Z" fill="#161239"/>
<path d="M428.605 826.665V684.882H492.265C508.231 684.882 522.219 687.785 534.227 693.592C546.373 699.398 555.652 707.635 562.066 718.302C568.616 728.97 571.891 741.393 571.891 755.571C571.891 769.884 568.616 782.442 562.066 793.244C555.652 803.912 546.373 812.149 534.227 817.955C522.219 823.761 508.231 826.665 492.265 826.665H428.605ZM490.627 796.89C499.907 796.89 507.89 795.27 514.577 792.029C521.263 788.653 526.381 783.927 529.929 777.851C533.613 771.64 535.456 764.28 535.456 755.773C535.456 747.131 533.613 739.772 529.929 733.696C526.381 727.484 521.195 722.758 514.372 719.518C507.685 716.277 499.771 714.656 490.627 714.656H463.812V796.89H490.627Z" fill="#161239"/>
<path d="M688.06 826.598L628.836 758.204V751.722L686.356 684.68H729.342L668.547 754.558L730.948 826.598H688.06ZM597.313 826.665L597.109 684.882H632.521V826.665H597.313Z" fill="#161239"/>
</g>
<defs>
<clipPath id="clip0_172:18724">
<rect width="454.137" height="454.137" fill="white" transform="translate(185.209 92.4946)"/>
</clipPath>
<clipPath id="clip1_172:18724">
<rect width="637.341" height="141.918" fill="white" transform="translate(93.6074 684.68)"/>
</clipPath>
</defs>
</svg>
