<svg width="952" height="804" viewBox="0 0 952 804" fill="none" xmlns="http://www.w3.org/2000/svg">
<path d="M469.402 530.859L371.609 700.319C370.873 701.594 370.485 703.04 370.484 704.511C370.484 705.983 370.871 707.43 371.606 708.705C372.341 709.98 373.399 711.039 374.673 711.777C375.947 712.514 377.392 712.903 378.864 712.905H568.429C570.486 712.906 572.507 712.366 574.288 711.338C576.07 710.31 577.55 708.832 578.578 707.051C579.607 705.27 580.149 703.249 580.149 701.192C580.15 699.136 579.608 697.115 578.58 695.334L483.699 530.859C482.98 529.597 481.94 528.547 480.685 527.818C479.429 527.088 478.003 526.703 476.55 526.703C475.098 526.703 473.672 527.088 472.416 527.818C471.16 528.547 470.12 529.597 469.402 530.859Z" fill="#0395E8"/>
<path d="M506.14 712.839H574.467C575.911 712.839 577.329 712.459 578.58 711.737C579.83 711.015 580.869 709.976 581.591 708.726C582.313 707.475 582.693 706.057 582.693 704.613C582.693 703.169 582.313 701.75 581.591 700.5L483.699 530.859C482.977 529.608 481.938 528.57 480.688 527.848C479.437 527.126 478.019 526.746 476.575 526.746C475.131 526.746 473.712 527.126 472.462 527.848C471.211 528.57 470.173 529.608 469.451 530.859L456.289 553.777L506.14 712.839Z" fill="#0384CC"/>
<path d="M457.622 11.2536L249.154 358.712C246.998 362.297 245.859 366.4 245.859 370.583C245.859 374.765 246.998 378.869 249.154 382.453L362.675 570.801C364.742 574.235 367.669 577.07 371.167 579.026C374.665 580.983 378.613 581.992 382.62 581.956C386.628 581.919 390.557 580.838 394.019 578.818C397.48 576.798 400.355 573.91 402.359 570.439L606.007 217.88C607.929 214.561 608.923 210.786 608.886 206.951C608.848 203.115 607.78 199.361 605.793 196.08L494.361 11.2207C492.461 8.04208 489.769 5.41114 486.547 3.58533C483.326 1.75951 479.685 0.801379 475.982 0.804696C472.279 0.808013 468.641 1.77267 465.422 3.60425C462.204 5.43583 459.516 8.07159 457.622 11.2536Z" fill="#0395E8"/>
<path d="M23.0323 803.327H254.6C258.642 803.326 262.613 802.261 266.113 800.239C269.613 798.218 272.52 795.311 274.541 791.81L358.201 646.93C360.261 643.365 361.328 639.313 361.291 635.195C361.253 631.078 360.112 627.045 357.987 623.518L243.577 433.74C241.53 430.333 238.635 427.513 235.176 425.556C231.716 423.599 227.809 422.57 223.834 422.57C219.859 422.57 215.952 423.599 212.492 425.556C209.033 427.513 206.139 430.333 204.091 433.74L3.2894 768.431C1.18968 771.926 0.0552475 775.916 0.00196736 779.993C-0.0513128 784.069 0.978472 788.087 2.98613 791.636C4.99379 795.184 7.90738 798.136 11.4293 800.19C14.9512 802.244 18.9552 803.327 23.0323 803.327Z" fill="#0395E8"/>
<path d="M436.264 511.758L476.655 441.835L339.82 207.75L436.264 511.758Z" fill="#0384CC"/>
<path d="M339.688 205.28L456.286 11.8491C458.333 8.44203 461.227 5.62281 464.687 3.66557C468.147 1.70833 472.054 0.679688 476.029 0.679688C480.004 0.679687 483.911 1.70833 487.37 3.66557C490.83 5.62281 493.724 8.44203 495.772 11.8491L948.707 766.736C950.807 770.231 951.941 774.22 951.994 778.297C952.048 782.374 951.018 786.392 949.01 789.94C947.003 793.489 944.089 796.441 940.567 798.495C937.045 800.549 933.041 801.631 928.964 801.631H697.429C693.387 801.63 689.417 800.565 685.916 798.544C682.416 796.522 679.51 793.615 677.489 790.115L339.688 205.28Z" fill="url(#paint0_linear_1405_6487)"/>
<defs>
<linearGradient id="paint0_linear_1405_6487" x1="369" y1="664.18" x2="605.5" y2="164.68" gradientUnits="userSpaceOnUse">
<stop stop-color="#0284FE"/>
<stop offset="1" stop-color="#02C2FE"/>
</linearGradient>
</defs>
</svg>
