<svg xmlns="http://www.w3.org/2000/svg" width="191.5" height="41.5" viewBox="0 0 191.5 41.5">
  <g id="Group_4" data-name="Group 4" transform="translate(-68.217 470.184)">
    <g id="Group_3" data-name="Group 3" transform="translate(68.217 -470.184)">
      <path id="Path_10" data-name="Path 10" d="M725.679,416.41a17.815,17.815,0,0,1,3.38-2.93,21.948,21.948,0,0,0-5.34-.664,19.884,19.884,0,0,0-19.5,19.885c0,11.29,9.123,20.115,19.5,20.115a18.284,18.284,0,0,0,5.34-.7,23.8,23.8,0,0,1-3.328-2.954c-12.507-.33-17.913-8.364-17.913-16.466S713.807,416,725.679,416.41Z" transform="translate(-704.217 -412.816)"/>
      <path id="Subtraction_2" data-name="Subtraction 2" d="M20.272,39.912a21.175,21.175,0,0,1-8.36-1.652,19.211,19.211,0,0,1-6.392-4.424,19.717,19.717,0,0,1-4.084-6.4A20.748,20.748,0,0,1,1.415,12.32,19.261,19.261,0,0,1,5.463,5.985a18.95,18.95,0,0,1,6.385-4.362A21.7,21.7,0,0,1,20.272,0a19.469,19.469,0,0,1,8.334,1.8,18.975,18.975,0,0,1,6.185,4.661,20.761,20.761,0,0,1,3.849,6.4,19.953,19.953,0,0,1,1.325,7.005A19.935,19.935,0,0,1,38.62,26.9a21.634,21.634,0,0,1-1.639,3.373,21.157,21.157,0,0,1-2.245,3.085,19.264,19.264,0,0,1-6.193,4.724A19.033,19.033,0,0,1,20.272,39.912ZM19.983,3.37c-9.846,0-16.459,8.529-16.459,16.5A16.344,16.344,0,0,0,19.983,36.409c10.273,0,16.411-8.412,16.411-16.544C36.394,11.932,30.12,3.37,19.983,3.37Z" transform="translate(18.178)"/>
      <path id="Path_13" data-name="Path 13" d="M787.286,433.033a17.687,17.687,0,0,1,3.542-1.267c2.6,3.513,4.57,6.877,4.57,12.841a20.486,20.486,0,0,1-4.57,12.525,13.367,13.367,0,0,1-3.4-1.411,16.731,16.731,0,0,0,4.455-11.373A16.279,16.279,0,0,0,787.286,433.033Z" transform="translate(-755.547 -424.467)" fill="#cf6035"/>
    </g>
    <path id="Path_14" data-name="Path 14" d="M626.271,566.1v7.169h1.4s1.881-5.586,4.37-5.586H635.3v19.9c0,1.987-1.311,2.476-3.856,2.476v1.324h14.109V590.05s-3.913.117-3.913-2.476v-19.9h2.885c2.114,0,3.656,2.62,4.77,5.586h1.485V566.1Z" transform="translate(-486.967 -1032.641)"/>
    <path id="Subtraction_3" data-name="Subtraction 3" d="M13.452,25.337H.057v-1.5h0c2.856,0,3.681-.581,3.681-2.591V3.685c0-1.1-1.017-1.654-1.871-1.923A7.9,7.9,0,0,0,0,1.44V0H14.623a16.522,16.522,0,0,1,5.59.8c2.526.935,3.807,2.651,3.807,5.1a6.42,6.42,0,0,1-.973,3.5,7.1,7.1,0,0,1-2.14,2.117,9.831,9.831,0,0,1-3.113,1.321c.059.074,6.454,8.121,7.769,9.588a4.954,4.954,0,0,0,3.5,1.412h.068v1.5H19.307c-3.359-5.378-8.149-11.342-8.2-11.4H10.053v7.313a2.27,2.27,0,0,0,1.38,2.213,4.654,4.654,0,0,0,1.871.382c.092,0,.146,0,.148,0v1.5Zm-3.4-23.7V12.15H11.71c3.285,0,5.169-2.067,5.169-5.672,0-4.209-3.239-4.837-5.169-4.837Z" transform="translate(169.007 -466.546)"/>
    <path id="Path_17" data-name="Path 17" d="M811.314,564.926h-1.67l-1.011.93a18.124,18.124,0,0,0-6.943-1.595c-7.48,0-14.147,4.5-14.147,13.7s7,13.041,13.612,13.041a23.221,23.221,0,0,0,11.343-2.968v-9.44H802.6v1.362s3.813-.053,3.813,2.628v5.012a6.973,6.973,0,0,1-4.726,1.557c-3.141,0-7-2.576-7-11.581s4.3-11.711,7-11.711,5.981,1.25,8.2,8.305h1.641Z" transform="translate(-586.622 -1031.514)"/>
    <path id="Path_18" data-name="Path 18" d="M893.43,564.922h-1.738l-1.014.924a13.832,13.832,0,0,0-6.564-1.654c-7.548,0-13.949,4.929-13.949,13.77s6.515,12.943,13.949,12.943,10.522-7.007,10.522-7.007l-1.5-.973s-2.878,5.45-8.012,5.45-7.771-4.268-7.771-11.045,2.317-11.483,6.758-11.483,6.613,4.379,7.819,8.321h1.674Z" transform="translate(-637.675 -1031.471)"/>
    <line id="Line_1" data-name="Line 1" x2="117.297" transform="translate(140.919 -430.184)" fill="none" stroke="#000" stroke-linecap="round" stroke-width="3"/>
  </g>
</svg>
